<svg width="81" height="27" viewBox="0 0 81 27" fill="none" xmlns="http://www.w3.org/2000/svg">
<path fill-rule="evenodd" clip-rule="evenodd" d="M1.77892 11.0437C1.87888 10.8445 2.04917 10.302 2.38737 9.90401C2.61188 9.63988 3.07092 9.47939 3.43723 9.45384C4.01927 9.41349 4.47653 9.76094 4.65341 10.3173C4.77319 10.6947 4.80534 11.1207 4.78147 11.518C4.70835 12.7353 4.46565 13.9558 4.53133 15.1632C4.57525 15.9948 3.78929 17.2072 4.911 17.6105C5.65375 17.8775 6.1872 16.7654 6.7438 16.2132C9.34931 13.6324 12.0515 11.1912 15.1232 9.14608C19.6744 6.11656 24.5076 3.78731 29.802 2.36135C36.0299 0.683029 42.3968 0.108534 48.7537 0.611801C55.9718 1.18315 62.8392 3.29071 69.1771 6.97035C72.9578 9.16623 76.3278 11.8666 79.519 14.8149C80.0054 15.2644 80.4259 15.8251 80.739 16.4089C81 16.8961 80.9186 17.4728 80.4546 17.882C80.0251 18.2592 79.497 18.4571 78.967 18.1966C78.4938 17.9623 78.0642 17.6171 77.658 17.271C75.8013 15.69 74.0325 13.9929 72.095 12.5194C66.8405 8.52059 60.9686 5.90008 54.4746 4.54205C50.722 3.75772 46.9917 3.423 43.175 3.54814C39.7716 3.65943 36.4058 3.83904 33.204 5.16292C32.5823 5.42009 31.9033 5.5426 31.2445 5.70325C23.4193 7.61379 16.7095 11.5478 10.8253 16.9695C9.53069 18.1621 8.28741 19.4103 7.03282 20.6463C6.66368 21.009 6.59089 21.6825 6.87349 21.7334C7.12644 21.7797 7.40182 21.8745 7.63687 21.8168C9.08339 21.4595 10.5165 21.0475 11.9644 20.6916C12.6161 20.5305 13.2875 20.4243 13.9574 20.3549C14.5496 20.2929 15.2474 20.9827 15.3366 21.617C15.4249 22.2509 15.0249 22.6132 14.6143 22.9695C14.5155 23.0546 14.3804 23.1162 14.2521 23.1498C10.4557 24.1605 6.66382 25.194 2.85431 26.1546C1.89535 26.3974 0.952947 25.6398 0.750636 24.6791C0.722884 24.5463 0.669994 24.4175 0.652972 24.2845C0.343388 21.8489 0.980922 13.9615 1.77892 11.0437Z" fill="black"/>
</svg>
