<svg width="127" height="252" viewBox="0 0 127 252" fill="none" xmlns="http://www.w3.org/2000/svg">
<path fill-rule="evenodd" clip-rule="evenodd" d="M155.514 251.267H-6.10352e-05V0H155.514V251.267Z" fill="black"/>
<path fill-rule="evenodd" clip-rule="evenodd" d="M142.954 240.435H14.0969V14.6992H142.954V240.435Z" fill="black"/>
<path fill-rule="evenodd" clip-rule="evenodd" d="M136.674 234.249H19.5895V18.9004H136.674V234.249Z" fill="#FFFFFE"/>
<path fill-rule="evenodd" clip-rule="evenodd" d="M126.207 219.561H29.4867V32.5996H126.207V219.561Z" fill="#FFDA58"/>
<path fill-rule="evenodd" clip-rule="evenodd" d="M44.4493 67.2584C44.4493 74.2493 50.0992 79.9172 57.0679 79.9172C64.0366 79.9172 69.6865 74.2493 69.6865 67.2584C69.6865 60.2675 64.0366 54.5996 57.0679 54.5996C50.0992 54.5996 44.4493 60.2675 44.4493 67.2584Z" fill="#FF5E3A"/>
<path fill-rule="evenodd" clip-rule="evenodd" d="M73.9658 196.896C60.6271 185.241 43.5999 179.499 29.4867 180.919V159.274C48.423 176.547 82.2659 173.298 94.9975 138.426C103.88 114.091 115.091 105.561 126.207 110.58V185.724C112.286 199.162 90.5199 211.359 73.9658 196.896Z" fill="#4CCAFF"/>
<path fill-rule="evenodd" clip-rule="evenodd" d="M73.9658 196.789C90.5199 211.251 112.286 199.055 126.207 185.617V220.374H29.4867V180.812C43.5999 179.392 60.6271 185.134 73.9658 196.789Z" fill="#FF5E3A"/>
</svg>
