<svg width="103" height="282" viewBox="0 0 103 282" fill="none" xmlns="http://www.w3.org/2000/svg">
<path d="M30.6805 167.475C26.0382 165.025 21.3968 162.373 16.5521 159.922C12.5149 157.88 8.47579 156.242 3.8325 153.994C2.81605 155.001 1.39582 155.804 0.984466 157.218C0.575976 158.026 1.37491 160.255 2.1814 160.866C5.20599 163.106 8.43388 165.145 11.6637 166.779C14.6921 168.209 18.1289 168.833 20.955 170.262C26.2024 173.12 31.4479 176.382 36.6953 179.24C47.7953 185.362 59.0996 191.081 70.1996 197.204C80.6945 202.919 90.9842 209.24 101.479 214.955C102.488 215.567 104.106 215.777 104.918 215.173C105.73 214.57 106.143 212.751 105.743 211.738C105.142 210.521 103.934 209.301 102.723 208.688C87.5892 199.714 72.4568 190.537 57.1201 181.764C48.6448 176.868 39.5605 172.374 30.6805 167.475Z" fill="#FFBD07"/>
<path d="M26.9345 189.107C20.2755 185.232 13.8198 181.154 7.16171 177.076C4.74033 175.648 2.31513 175.03 1.08489 178.464C-0.144389 181.696 1.66712 183.728 4.08945 184.953C8.93221 187.809 13.9792 190.26 18.822 193.116C22.2522 195.156 25.4762 198.004 29.1087 200.044C39.804 206.165 50.7046 211.68 61.6023 217.801C69.8762 222.494 77.9468 227.388 86.0174 232.283C86.8249 232.691 87.4299 233.099 88.6421 233.509C89.4533 233.108 90.8716 232.71 91.0778 231.902C91.4872 230.892 91.2944 228.868 90.6921 227.853C90.0908 226.636 88.6802 225.415 87.4691 224.803C79.1961 219.907 70.7198 215.214 62.4468 210.318C50.7446 203.181 38.8391 196.246 26.9345 189.107Z" fill="#FFBD07"/>
<path d="M46.8682 124.452C44.044 122.618 40.8133 121.186 37.7868 119.351C29.7143 114.861 21.4384 110.573 13.3658 106.084C10.9444 104.656 8.93063 102.623 6.71254 100.994C4.69583 99.5678 2.87384 99.7616 1.64932 101.982C0.424802 104.202 0.616676 106.428 3.0371 108.058C6.26307 110.502 9.48718 113.35 12.9183 115.187C21.5969 119.882 30.2793 123.767 38.9569 128.664C49.2485 134.581 59.5363 141.306 69.6227 147.829C76.4812 152.313 83.3388 156.999 90.4006 161.281C101.699 168.214 113.202 174.744 124.501 181.474C127.528 183.309 130.352 185.144 133.378 186.979C138.423 189.836 143.266 192.691 148.916 195.955C150.34 194.546 151.963 193.542 152.375 191.925C152.582 190.914 150.975 188.478 149.967 187.664C147.143 185.83 144.112 185.006 141.287 183.374C133.619 178.887 125.952 174.197 118.487 169.508C105.979 161.76 93.469 154.214 80.9612 146.264C69.4604 139.33 58.3671 131.791 46.8682 124.452Z" fill="#FFBD07"/>
<path d="M82.8597 172.578C71.3589 165.644 60.2646 158.307 48.5586 151.98C35.8428 145.242 22.5133 139.919 10.6173 130.96C9.00431 129.738 7.18713 128.92 5.36895 128.304C2.94471 127.484 0.913676 129.093 0.897466 132.532C1.2907 134.962 3.71208 136.39 5.93112 137.817C12.9948 141.695 19.8553 145.774 27.1232 149.248C33.5828 152.516 40.2456 155.583 46.9085 158.649C47.9182 159.059 48.7247 159.669 49.5312 160.28C52.9605 162.522 56.5911 164.967 60.0213 167.007C63.0478 168.842 66.2796 170.072 69.3061 171.907C73.14 174.151 76.7696 176.798 80.6036 179.042C89.2803 184.142 97.957 189.241 106.634 194.341C112.485 197.808 118.135 201.072 124.19 204.338C124.998 204.747 126.82 204.553 127.227 203.948C127.838 203.141 127.849 200.915 127.245 200.103C126.241 198.48 124.629 197.056 123.218 196.037C115.147 191.143 107.075 186.451 99.0039 181.759C93.5551 178.699 88.3076 175.841 82.8597 172.578Z" fill="#FFBD07"/>
<path d="M107.454 106.326C104.024 104.286 100.391 102.245 96.9601 100.408C93.9327 98.7752 90.7 97.7482 87.6725 96.1152C83.8377 94.0737 80.2061 91.8308 76.3712 89.7894C67.6917 85.2969 59.0121 80.8045 50.3316 76.5144C44.4781 73.4517 38.8259 70.5922 32.7691 67.7309C31.9617 67.3224 30.1397 67.5162 29.7321 68.1213C29.1213 68.9278 29.1127 70.7488 29.7159 71.561C30.721 72.9821 32.3339 74.2038 33.7465 75.0198C41.82 79.3071 49.8944 83.392 57.9689 87.4769C63.4196 90.133 68.668 92.7882 74.1178 95.6467C85.6234 101.569 96.7205 108.298 108.43 113.817C121.15 119.745 134.483 124.259 146.383 132.409C147.997 133.428 149.814 134.246 151.633 134.862C153.451 135.477 155.073 134.676 155.689 132.857L155.7 130.429C154.899 128.807 152.881 127.583 150.862 126.562C143.797 123.089 136.933 119.617 129.663 116.547C123.202 113.684 116.537 111.022 109.873 108.158C109.27 107.346 108.261 106.734 107.454 106.326Z" fill="#FFBD07"/>
<path d="M102.13 33.6577C101.12 33.4506 99.497 34.2523 99.0886 35.0598C98.6801 35.8672 99.2785 37.6911 99.8808 38.7057C100.484 39.5179 101.695 40.1306 102.705 40.54C109.769 44.4178 116.832 48.2956 123.895 52.3758C130.757 56.0503 137.416 59.9262 144.28 63.3983C146.904 64.8271 149.731 65.8521 152.962 67.2838C153.977 66.6815 155.597 66.2845 156.208 65.478L156.219 63.2522C155.818 62.441 155.418 61.4274 154.815 60.6152C154.212 59.6006 152.596 59.1883 151.384 58.7779C145.124 55.9156 138.862 53.6604 132.808 50.3943C123.927 45.6986 115.25 40.5992 106.371 35.4988C104.958 34.6827 103.547 33.6644 102.13 33.6577Z" fill="#FFBD07"/>
<path d="M70.9239 43.2232C70.1165 42.8147 69.5103 42.6095 68.2992 41.9968C67.4879 42.3977 66.0707 42.5933 65.8645 43.4017C65.4551 44.4115 65.6497 46.0312 66.2519 47.0457C66.8532 48.2626 68.2659 49.0786 69.4761 49.8937C77.7519 54.1819 86.231 58.2687 94.5068 62.5569C106.416 68.6833 118.122 75.0111 130.032 81.1375C136.693 84.6087 143.15 88.2813 149.811 91.7525C152.233 92.978 154.659 93.5964 155.887 90.5671C155.887 90.5671 155.888 90.3647 156.09 90.3657L156.103 87.7353C155.501 86.5184 154.493 85.7043 153.081 84.8883C148.236 82.4373 143.188 80.1878 138.344 77.7368C134.912 75.8996 131.687 73.4563 128.053 71.618C117.354 66.3067 106.45 61.3991 95.549 56.0869C87.0708 51.7977 78.9974 47.5105 70.9239 43.2232Z" fill="#FFBD07"/>
<path d="M86.5635 73.8512C76.0658 68.7432 65.7714 63.4337 55.2746 58.1234C54.2648 57.7139 52.647 57.504 51.8358 57.9048C51.0245 58.3057 50.6112 60.1248 51.0121 60.9361C51.6134 62.153 52.8226 63.1704 54.0338 63.7831C69.1719 71.7458 84.3102 79.7085 99.6516 87.4698C108.534 91.9632 117.417 96.0519 126.3 100.343C130.943 102.591 135.587 104.838 140.433 106.885C144.472 108.725 148.512 110.16 153.157 112.003C153.97 111.198 155.187 110.596 155.799 109.587L155.808 107.564C155.609 106.956 155.207 106.347 154.803 106.143C151.778 104.105 148.548 102.471 145.317 101.04C142.288 99.8113 138.851 99.1881 136.024 97.9607C130.775 95.5078 125.528 92.448 120.279 89.9951C108.974 84.2763 97.6674 79.1644 86.5635 73.8512Z" fill="#FFBD07"/>
<path d="M87.1687 117.155C80.3073 113.278 73.4478 108.997 66.3832 105.321C55.0809 99.1977 43.5744 93.4779 32.2711 87.5567C29.2436 85.9237 26.4185 84.2916 23.3911 82.6586C18.345 80.0044 13.5003 77.5535 7.84819 74.694C6.4261 75.9014 4.80356 76.7031 4.39221 78.1176C4.18605 78.926 5.79429 81.1593 6.80217 81.9734C9.62727 83.6055 12.6585 84.4291 15.4846 85.8588C23.1553 89.7395 30.8252 93.8225 38.2926 97.9045C50.8061 104.641 63.3195 111.377 75.8321 118.316C87.3358 124.643 98.433 131.372 109.937 137.699C112.762 139.331 115.993 140.56 119.021 142.193C127.096 146.076 135.374 149.959 143.449 153.842C145.872 155.067 147.886 156.898 150.106 158.325C152.123 159.548 153.945 159.355 155.168 157.539C155.371 157.338 155.373 156.933 155.576 156.732L155.589 154.101C155.389 153.494 154.786 152.681 153.776 152.272C150.549 150.031 147.322 147.79 143.891 145.953C135.21 141.865 126.525 138.384 117.845 134.094C107.55 128.785 97.4612 122.869 87.1687 117.155Z" fill="#FFBD07"/>
<path d="M28.6012 264.994C29.0107 263.985 28.0086 261.956 27.4092 260.335C27.2088 259.929 26.4012 259.521 25.7952 259.316C21.3552 256.867 16.9162 254.215 12.4762 251.766C10.0548 250.338 7.4301 249.112 5.00681 248.089C2.38213 246.862 1.56418 248.68 0.53723 251.912C1.94692 253.335 3.15244 255.162 4.76638 256.181C6.98542 257.608 9.40864 258.631 11.6296 259.653C16.0705 261.9 20.5106 264.349 24.9525 266.394C25.9623 266.803 28.1918 266.004 28.6012 264.994Z" fill="#FFBD07"/>
<path d="M17.1722 243.086C25.2457 247.374 33.1141 252.267 41.1876 256.554C42.1964 257.166 44.0213 256.365 44.6321 255.559C45.0397 254.953 44.445 252.32 43.6395 251.507C42.4322 250.085 40.6148 249.267 39.0009 248.248C33.9567 245.189 28.7104 242.129 23.4629 239.271C17.2066 235.802 10.9493 232.535 4.6921 229.268C2.06743 228.042 0.238858 229.652 0.224556 232.687C0.2093 235.924 3.83613 239.179 7.27301 239.802C10.7089 240.628 14.1448 241.453 17.1722 243.086Z" fill="#FFBD07"/>
<path d="M3.68577 270.744C0.855897 270.124 0.439704 272.55 0.428262 274.978C0.409192 279.025 3.8538 278.029 6.06808 280.468C7.08644 279.056 8.30522 278.05 8.71752 276.434C9.13078 274.615 5.90863 271.362 3.68577 270.744Z" fill="#FFBD07"/>
<path d="M54.4387 235.371C47.3779 230.886 40.317 226.402 33.2562 221.917C26.3967 217.635 19.7395 213.355 12.8791 209.275C10.2563 207.644 7.42839 206.619 4.19861 204.985C2.98077 205.789 1.15779 206.185 0.746443 207.6C0.336046 208.812 1.33639 211.245 2.34141 212.666C2.94365 213.68 4.5594 214.295 5.77057 214.908C12.0287 217.972 18.2879 220.834 24.3418 224.303C33.2199 229.606 41.8929 235.514 50.769 241.222C52.1816 242.038 53.5931 243.056 55.0085 243.265C56.0193 243.472 57.6418 242.671 58.0512 241.661C58.4607 240.651 57.8622 238.827 57.2609 237.61C56.6587 236.596 55.4476 235.983 54.4387 235.371Z" fill="#FFBD07"/>
</svg>
