<svg width="507" height="447" viewBox="0 0 507 447" fill="none" xmlns="http://www.w3.org/2000/svg">
<g opacity="0.18">
<path d="M195.81 21.4727V311.494" stroke="white" stroke-width="1.5" stroke-miterlimit="10" stroke-linecap="round"/>
<path d="M219.369 23.7461V311.656" stroke="white" stroke-width="1.5" stroke-miterlimit="10" stroke-linecap="round"/>
<path d="M1 340.415C2.78725 340.252 206.534 309.869 206.534 309.869L542.374 356.338V358.287L206.371 315.231L1 342.852V340.415V340.415Z" stroke="white" stroke-width="1.5" stroke-miterlimit="10" stroke-linecap="round"/>
<path d="M2.62537 342.691C4.41262 342.528 206.372 315.395 206.372 315.395L540.75 358.288V360.238L206.209 320.756L2.46289 345.128V342.691H2.62537Z" stroke="white" stroke-width="1.5" stroke-miterlimit="10" stroke-linecap="round"/>
<path d="M5.87402 344.638C7.66127 344.476 206.208 320.754 206.208 320.754L537.499 359.748V361.698L206.046 326.116L5.87402 347.075V344.638Z" stroke="white" stroke-width="1.5" stroke-miterlimit="10" stroke-linecap="round"/>
<path d="M13.998 346.264V358.288L205.396 336.353L537.5 370.311V361.7L206.046 326.117L13.998 346.264Z" stroke="white" stroke-width="1.5" stroke-miterlimit="10" stroke-linecap="round"/>
<path d="M13.998 358.288H22.9343L205.396 338.628L537.5 370.311L205.396 336.354L13.998 358.288Z" stroke="white" stroke-width="1.5" stroke-miterlimit="10" stroke-linecap="round"/>
<path d="M192.723 340.089V345.289H194.835V445.049L204.583 445.699L216.932 444.887V346.263H219.369V340.089L205.396 338.627L192.723 340.089Z" stroke="white" stroke-width="1.5" stroke-miterlimit="10" stroke-linecap="round"/>
<path d="M17.085 365.599L205.396 349.676L216.932 350.651" stroke="white" stroke-width="1.5" stroke-miterlimit="10" stroke-linecap="round"/>
<path d="M17.085 367.385L205.396 352.438L216.932 353.25" stroke="white" stroke-width="1.5" stroke-miterlimit="10" stroke-linecap="round"/>
<path d="M194.835 436.113H205.071H216.932" stroke="white" stroke-width="1.5" stroke-miterlimit="10" stroke-linecap="round"/>
<path d="M205.396 352.438V436.113" stroke="white" stroke-width="1.5" stroke-miterlimit="10" stroke-linecap="round"/>
<path d="M194.835 443.425L16.2725 438.226V358.287" stroke="white" stroke-width="1.5" stroke-miterlimit="10" stroke-linecap="round"/>
<path d="M150.154 344.639V442.126L146.254 443.263V351.463C146.254 351.463 143.167 347.401 144.304 343.502L150.154 344.639Z" stroke="white" stroke-width="1.5" stroke-miterlimit="10" stroke-linecap="round"/>
<path d="M135.693 344.477C134.556 348.376 137.643 352.438 137.643 352.438V442.775L146.254 443.263" stroke="white" stroke-width="1.5" stroke-miterlimit="10" stroke-linecap="round"/>
<path d="M99.7855 350.001V440.663L96.211 441.638V356.175C96.211 356.175 93.2864 352.438 94.4238 348.701L99.7855 350.001Z" stroke="white" stroke-width="1.5" stroke-miterlimit="10" stroke-linecap="round"/>
<path d="M88.4135 350C87.4386 353.574 90.2007 357.474 90.2007 357.474V441.475L96.2124 441.637" stroke="white" stroke-width="1.5" stroke-miterlimit="10" stroke-linecap="round"/>
<path d="M99.7855 350.001V440.663L96.211 441.638V356.175C96.211 356.175 93.2864 352.438 94.4238 348.701L99.7855 350.001Z" stroke="white" stroke-width="1.5" stroke-miterlimit="10" stroke-linecap="round"/>
<path d="M88.4135 350C87.4386 353.574 90.2007 357.474 90.2007 357.474V441.475L96.2124 441.637" stroke="white" stroke-width="1.5" stroke-miterlimit="10" stroke-linecap="round"/>
<path d="M56.7303 354.713V439.526L53.8058 440.501V360.724C53.8058 360.724 51.3686 357.475 52.3435 353.9L56.7303 354.713Z" stroke="white" stroke-width="1.5" stroke-miterlimit="10" stroke-linecap="round"/>
<path d="M47.3062 354.551C46.4938 358.125 48.7685 362.025 48.7685 362.025V440.339L53.8053 440.501" stroke="white" stroke-width="1.5" stroke-miterlimit="10" stroke-linecap="round"/>
<path d="M23.4222 358.287V438.388L20.6601 439.363V364.136C20.6601 364.136 18.3854 361.049 19.1978 357.637L23.4222 358.287Z" stroke="white" stroke-width="1.5" stroke-miterlimit="10"/>
<path d="M14.3237 358.287C13.5114 361.699 15.786 365.436 15.786 365.436V439.201L20.4979 439.363" stroke="white" stroke-width="1.5" stroke-miterlimit="10"/>
<path d="M150.155 435.463L15.7861 433.676" stroke="white" stroke-width="1.5" stroke-miterlimit="10"/>
<path d="M448.137 370.473L216.932 350.65" stroke="white" stroke-width="1.5" stroke-miterlimit="10" stroke-linecap="round"/>
<path d="M537.499 378.11L487.294 373.723" stroke="white" stroke-width="1.5" stroke-miterlimit="10" stroke-linecap="round"/>
<path d="M448.137 372.422L216.932 353.25" stroke="white" stroke-width="1.5" stroke-miterlimit="10" stroke-linecap="round"/>
<path d="M537.499 379.896L487.294 375.672" stroke="white" stroke-width="1.5" stroke-miterlimit="10" stroke-linecap="round"/>
<path d="M217.258 443.425L537.5 432.214V370.311" stroke="white" stroke-width="1.5" stroke-miterlimit="10" stroke-linecap="round"/>
<path d="M289.071 346.589V441.313L292.971 442.288V353.25C292.971 353.25 296.058 349.188 294.92 345.451L289.071 346.589Z" stroke="white" stroke-width="1.5" stroke-miterlimit="10" stroke-linecap="round"/>
<path d="M303.533 345.613C304.67 349.35 301.583 354.55 301.583 354.55V442.125L292.972 442.612" stroke="white" stroke-width="1.5" stroke-miterlimit="10" stroke-linecap="round"/>
<path d="M355.037 353.087V438.875L358.612 439.85V359.262C358.612 359.262 361.374 355.85 360.399 352.438L355.037 353.087Z" stroke="white" stroke-width="1.5" stroke-miterlimit="10" stroke-linecap="round"/>
<path d="M366.411 352.764C367.386 356.176 364.624 359.75 364.624 359.75V439.526L358.612 439.689" stroke="white" stroke-width="1.5" stroke-miterlimit="10" stroke-linecap="round"/>
<path d="M402.969 357.475V437.251L405.893 438.226V363.324C405.893 363.324 408.331 360.887 407.356 357.312L402.969 357.475Z" stroke="white" stroke-width="1.5" stroke-miterlimit="10" stroke-linecap="round"/>
<path d="M412.393 357.312C413.205 360.725 410.93 363.649 410.93 363.649V437.901L405.894 438.064" stroke="white" stroke-width="1.5" stroke-miterlimit="10" stroke-linecap="round"/>
<path d="M487.295 430.264L537.5 429.127" stroke="white" stroke-width="1.5" stroke-miterlimit="10"/>
<path d="M216.933 436.115L448.138 431.078" stroke="white" stroke-width="1.5" stroke-miterlimit="10"/>
<path d="M7.01172 136.831L205.396 1L528.401 216.445V220.669L205.234 7.17413L7.01172 141.218V136.831Z" stroke="white" stroke-width="1.5" stroke-miterlimit="10" stroke-linecap="round" stroke-linejoin="round"/>
<path d="M7.01172 141.217H13.9982L205.396 15.2969L522.389 220.668H528.401" stroke="white" stroke-width="1.5" stroke-miterlimit="10" stroke-linecap="round"/>
<path d="M205.396 15.2969V309.868" stroke="white" stroke-width="1.5" stroke-miterlimit="10" stroke-linecap="round"/>
<path d="M13.998 141.219V338.628" stroke="white" stroke-width="1.5" stroke-miterlimit="10" stroke-linecap="round"/>
<path d="M50.8809 111.646V333.265" stroke="white" stroke-width="1.5" stroke-miterlimit="10" stroke-linecap="round"/>
<path d="M55.7549 332.615V108.234L60.1418 110.834V331.965" stroke="white" stroke-width="1.5" stroke-miterlimit="10" stroke-linecap="round"/>
<path d="M7.01172 141.381V339.603" stroke="white" stroke-width="1.5" stroke-miterlimit="10" stroke-linecap="round"/>
<path d="M12.0488 338.953V137.969L16.2732 139.594V337.978" stroke="white" stroke-width="1.5" stroke-miterlimit="10" stroke-linecap="round"/>
<path d="M90.8496 84.5137V327.417" stroke="white" stroke-width="1.5" stroke-miterlimit="10" stroke-linecap="round"/>
<path d="M97.1865 326.442V80.2891L102.873 82.7262V325.63" stroke="white" stroke-width="1.5" stroke-miterlimit="10" stroke-linecap="round"/>
<path d="M139.755 51.3691V319.456" stroke="white" stroke-width="1.5" stroke-miterlimit="10" stroke-linecap="round"/>
<path d="M146.092 319.131V47.1445L151.778 50.5566V318.156" stroke="white" stroke-width="1.5" stroke-miterlimit="10" stroke-linecap="round"/>
<path d="M412.067 143.656V338.304" stroke="white" stroke-width="1.5" stroke-miterlimit="10" stroke-linecap="round"/>
<path d="M407.03 337.653V140.406L402.806 143.331V337.004" stroke="white" stroke-width="1.5" stroke-miterlimit="10" stroke-linecap="round"/>
<path d="M455.773 172.414V344.315" stroke="white" stroke-width="1.5" stroke-miterlimit="10" stroke-linecap="round"/>
<path d="M450.899 343.664V169.488L446.675 171.438V343.014" stroke="white" stroke-width="1.5" stroke-miterlimit="10" stroke-linecap="round"/>
<path d="M487.294 193.047V348.7" stroke="white" stroke-width="1.5" stroke-miterlimit="10" stroke-linecap="round"/>
<path d="M482.42 348.051V190.123L478.195 192.073V347.401" stroke="white" stroke-width="1.5" stroke-miterlimit="10" stroke-linecap="round"/>
<path d="M362.836 111.322V331.479" stroke="white" stroke-width="1.5" stroke-miterlimit="10" stroke-linecap="round"/>
<path d="M356.5 330.666V107.098L350.976 109.535V329.854" stroke="white" stroke-width="1.5" stroke-miterlimit="10" stroke-linecap="round"/>
<path d="M301.095 70.5391V323.029" stroke="white" stroke-width="1.5" stroke-miterlimit="10" stroke-linecap="round"/>
<path d="M294.596 322.055V66.3164L289.071 69.7284V321.406" stroke="white" stroke-width="1.5" stroke-miterlimit="10" stroke-linecap="round"/>
<path d="M48.7683 383.146L23.4219 384.284" stroke="white" stroke-width="1.5" stroke-miterlimit="10"/>
<path d="M48.7683 421.49L23.4219 420.84" stroke="white" stroke-width="1.5" stroke-miterlimit="10"/>
<path d="M48.7683 423.604H23.4219" stroke="white" stroke-width="1.5" stroke-miterlimit="10"/>
<path d="M26.3467 384.285V421.005" stroke="white" stroke-width="1.5" stroke-miterlimit="10"/>
<path d="M56.7295 421.166L90.1998 421.004" stroke="white" stroke-width="1.5" stroke-miterlimit="10"/>
<path d="M56.7295 423.116L90.1998 422.953" stroke="white" stroke-width="1.5" stroke-miterlimit="10"/>
<path d="M56.7295 382.497L90.1998 381.197" stroke="white" stroke-width="1.5" stroke-miterlimit="10"/>
<path d="M60.4668 382.334L60.6293 421.166" stroke="white" stroke-width="1.5" stroke-miterlimit="10"/>
<path d="M99.7861 380.871L138.131 379.896" stroke="white" stroke-width="1.5" stroke-miterlimit="10"/>
<path d="M99.7861 420.516L137.156 420.354" stroke="white" stroke-width="1.5" stroke-miterlimit="10"/>
<path d="M99.7861 422.627L137.643 422.465" stroke="white" stroke-width="1.5" stroke-miterlimit="10"/>
<path d="M103.523 380.709V420.028" stroke="white" stroke-width="1.5" stroke-miterlimit="10"/>
<path d="M150.154 378.759L194.836 378.109" stroke="white" stroke-width="1.5" stroke-miterlimit="10"/>
<path d="M170.464 378.434V442.775" stroke="white" stroke-width="1.5" stroke-miterlimit="10"/>
<path d="M153.403 381.848H167.376V425.229H154.216L153.403 381.848Z" stroke="white" stroke-width="1.5" stroke-miterlimit="10"/>
<path d="M173.062 381.847V425.228H191.747V381.359L173.062 381.847Z" stroke="white" stroke-width="1.5" stroke-miterlimit="10"/>
<path d="M289.072 427.664L216.932 429.126" stroke="white" stroke-width="1.5" stroke-miterlimit="10"/>
<path d="M217.258 425.227L289.073 424.09" stroke="white" stroke-width="1.5" stroke-miterlimit="10"/>
<path d="M217.258 376.809L289.073 378.108" stroke="white" stroke-width="1.5" stroke-miterlimit="10"/>
<path d="M285.985 377.459V424.09" stroke="white" stroke-width="1.5" stroke-miterlimit="10"/>
<path d="M301.583 378.109L354.551 379.897" stroke="white" stroke-width="1.5" stroke-miterlimit="10"/>
<path d="M301.583 423.602L355.038 423.277" stroke="white" stroke-width="1.5" stroke-miterlimit="10"/>
<path d="M301.583 426.528L355.038 426.203" stroke="white" stroke-width="1.5" stroke-miterlimit="10"/>
<path d="M351.626 379.896V423.278" stroke="white" stroke-width="1.5" stroke-miterlimit="10"/>
<path d="M364.787 423.277H402.969" stroke="white" stroke-width="1.5" stroke-miterlimit="10"/>
<path d="M364.787 426.528L402.969 426.203" stroke="white" stroke-width="1.5" stroke-miterlimit="10"/>
<path d="M364.787 379.896L402.969 380.871" stroke="white" stroke-width="1.5" stroke-miterlimit="10"/>
<path d="M400.531 380.709V423.278" stroke="white" stroke-width="1.5" stroke-miterlimit="10"/>
<path d="M448.138 361.699V435.301" stroke="white" stroke-width="1.5" stroke-miterlimit="10" stroke-linecap="round"/>
<path d="M487.294 365.111V433.839" stroke="white" stroke-width="1.5" stroke-miterlimit="10" stroke-linecap="round"/>
<path d="M454.961 435.139V369.498L481.607 371.61V433.839" stroke="white" stroke-width="1.5" stroke-miterlimit="10"/>
<path d="M410.93 423.277H448.137" stroke="white" stroke-width="1.5" stroke-miterlimit="10"/>
<path d="M410.93 426.202L448.137 425.715" stroke="white" stroke-width="1.5" stroke-miterlimit="10"/>
<path d="M410.93 380.709L448.137 382.659" stroke="white" stroke-width="1.5" stroke-miterlimit="10"/>
<path d="M445.538 382.496V423.278" stroke="white" stroke-width="1.5" stroke-miterlimit="10"/>
<path d="M487.294 384.445L510.203 385.583" stroke="white" stroke-width="1.5" stroke-miterlimit="10"/>
<path d="M487.294 421.979H510.203" stroke="white" stroke-width="1.5" stroke-miterlimit="10"/>
<path d="M487.294 423.928L510.203 423.604" stroke="white" stroke-width="1.5" stroke-miterlimit="10"/>
<path d="M41.7822 146.904V179.075" stroke="white" stroke-width="1.5" stroke-miterlimit="10" stroke-linecap="round"/>
<path d="M41.7822 193.373V225.381" stroke="white" stroke-width="1.5" stroke-miterlimit="10" stroke-linecap="round"/>
<path d="M41.7822 243.74V275.748" stroke="white" stroke-width="1.5" stroke-miterlimit="10" stroke-linecap="round"/>
<path d="M41.7822 290.371V322.379" stroke="white" stroke-width="1.5" stroke-miterlimit="10" stroke-linecap="round"/>
<path d="M478.357 434.164V371.285" stroke="white" stroke-width="1.5" stroke-miterlimit="10"/>
<path d="M222.944 359.912L222.294 372.423L282.573 373.398V362.349L222.944 359.912Z" stroke="white" stroke-width="1.5" stroke-miterlimit="10"/>
<path d="M189.798 359.912V372.423C189.798 372.423 155.028 373.885 155.516 373.398C156.003 372.91 155.191 363.324 155.516 362.837C155.841 362.349 189.798 359.912 189.798 359.912Z" stroke="white" stroke-width="1.5" stroke-miterlimit="10"/>
<path d="M132.769 375.835L104.498 377.459V365.599L132.769 361.699V375.835Z" stroke="white" stroke-width="1.5" stroke-miterlimit="10"/>
<path d="M85.6505 377.46L60.4666 378.435L60.1416 368.199L85.6505 366.736V377.46Z" stroke="white" stroke-width="1.5" stroke-miterlimit="10"/>
<path d="M45.1938 380.709L26.3464 381.359L26.0215 371.61L45.1938 369.498V380.709Z" stroke="white" stroke-width="1.5" stroke-miterlimit="10"/>
<path d="M305.158 373.56L350.977 375.672V368.198L305.158 364.461V373.56Z" stroke="white" stroke-width="1.5" stroke-miterlimit="10"/>
<path d="M369.498 375.997L399.231 377.459V371.285L369.498 369.498V375.997Z" stroke="white" stroke-width="1.5" stroke-miterlimit="10"/>
<path d="M414.18 378.109L444.238 379.896V374.697L414.18 372.422V378.109Z" stroke="white" stroke-width="1.5" stroke-miterlimit="10"/>
<path d="M490.057 382.496L507.117 383.634V379.897L490.057 378.922V382.496Z" stroke="white" stroke-width="1.5" stroke-miterlimit="10"/>
<path d="M426.04 148.205V132.445L413.367 120.422V139.757" stroke="white" stroke-width="1.5" stroke-miterlimit="10" stroke-linecap="round"/>
<path d="M413.367 120.422L400.531 130.495" stroke="white" stroke-width="1.5" stroke-miterlimit="10" stroke-linecap="round"/>
<path d="M50.8802 141.379L39.5068 148.365V180.211L50.8802 174.849" stroke="white" stroke-width="1.5" stroke-miterlimit="10" stroke-linecap="round"/>
<path d="M32.3582 183.624V151.941L19.5225 158.603V189.311L32.3582 183.624Z" stroke="white" stroke-width="1.5" stroke-miterlimit="10" stroke-linecap="round"/>
<path d="M21.7969 157.301V188.334" stroke="white" stroke-width="1.5" stroke-miterlimit="10" stroke-linecap="round"/>
<path d="M90.8507 117.982L79.1523 125.294V159.902L90.8507 153.89" stroke="white" stroke-width="1.5" stroke-miterlimit="10" stroke-linecap="round"/>
<path d="M76.3901 126.756V161.201L64.5293 166.563V134.067L76.3901 126.756Z" stroke="white" stroke-width="1.5" stroke-miterlimit="10" stroke-linecap="round"/>
<path d="M66.3174 132.93V165.75" stroke="white" stroke-width="1.5" stroke-miterlimit="10" stroke-linecap="round"/>
<path d="M81.4268 123.832V158.765" stroke="white" stroke-width="1.5" stroke-miterlimit="10" stroke-linecap="round"/>
<path d="M119.446 101.086L104.498 110.347V146.58L120.258 137.968L119.446 101.086Z" stroke="white" stroke-width="1.5" stroke-miterlimit="10" stroke-linecap="round"/>
<path d="M139.755 128.219L123.183 136.505V98.6482L139.755 88.4121" stroke="white" stroke-width="1.5" stroke-miterlimit="10" stroke-linecap="round"/>
<path d="M106.285 109.209V145.441" stroke="white" stroke-width="1.5" stroke-miterlimit="10" stroke-linecap="round"/>
<path d="M125.295 97.3477V135.367" stroke="white" stroke-width="1.5" stroke-miterlimit="10" stroke-linecap="round"/>
<path d="M155.516 78.9885V119.77L170.464 111.646V69.4023L155.516 78.9885Z" stroke="white" stroke-width="1.5" stroke-miterlimit="10" stroke-linecap="round"/>
<path d="M193.536 98.4863L175.176 108.885V66.1533L193.536 53.6426V98.4863Z" stroke="white" stroke-width="1.5" stroke-miterlimit="10" stroke-linecap="round"/>
<path d="M157.304 77.8516V119.121" stroke="white" stroke-width="1.5" stroke-miterlimit="10" stroke-linecap="round"/>
<path d="M176.8 65.0156V107.747" stroke="white" stroke-width="1.5" stroke-miterlimit="10" stroke-linecap="round"/>
<path d="M50.8802 188.822L39.5068 194.509V226.354L50.8802 222.293" stroke="white" stroke-width="1.5" stroke-miterlimit="10" stroke-linecap="round"/>
<path d="M32.3582 228.792V197.271L19.5225 202.308V233.016L32.3582 228.792Z" stroke="white" stroke-width="1.5" stroke-miterlimit="10" stroke-linecap="round"/>
<path d="M21.7969 201.334V232.367" stroke="white" stroke-width="1.5" stroke-miterlimit="10" stroke-linecap="round"/>
<path d="M90.8507 170.137L79.1523 176.148V210.756L90.8507 206.207" stroke="white" stroke-width="1.5" stroke-miterlimit="10" stroke-linecap="round"/>
<path d="M76.3901 177.285V211.73L64.5293 215.63V183.134L76.3901 177.285Z" stroke="white" stroke-width="1.5" stroke-miterlimit="10" stroke-linecap="round"/>
<path d="M66.3174 182.324V214.982" stroke="white" stroke-width="1.5" stroke-miterlimit="10" stroke-linecap="round"/>
<path d="M81.4268 175.012V209.944" stroke="white" stroke-width="1.5" stroke-miterlimit="10" stroke-linecap="round"/>
<path d="M119.446 156.814L104.498 164.126V200.521L120.258 193.859L119.446 156.814Z" stroke="white" stroke-width="1.5" stroke-miterlimit="10" stroke-linecap="round"/>
<path d="M139.755 186.223L123.183 192.559V154.864L139.755 146.578" stroke="white" stroke-width="1.5" stroke-miterlimit="10" stroke-linecap="round"/>
<path d="M106.285 163.312V199.545" stroke="white" stroke-width="1.5" stroke-miterlimit="10" stroke-linecap="round"/>
<path d="M125.295 153.727V191.746" stroke="white" stroke-width="1.5" stroke-miterlimit="10" stroke-linecap="round"/>
<path d="M155.516 138.941V179.886L170.464 173.387V131.143L155.516 138.941Z" stroke="white" stroke-width="1.5" stroke-miterlimit="10" stroke-linecap="round"/>
<path d="M193.536 162.988L175.176 171.275V128.543L193.536 118.145V162.988Z" stroke="white" stroke-width="1.5" stroke-miterlimit="10" stroke-linecap="round"/>
<path d="M157.304 137.967V179.398" stroke="white" stroke-width="1.5" stroke-miterlimit="10" stroke-linecap="round"/>
<path d="M176.8 127.568V170.3" stroke="white" stroke-width="1.5" stroke-miterlimit="10" stroke-linecap="round"/>
<path d="M50.8802 240.652L39.5068 244.552V276.397L50.8802 274.123" stroke="white" stroke-width="1.5" stroke-miterlimit="10" stroke-linecap="round"/>
<path d="M32.3582 277.699V246.016L19.5225 249.103V279.973L32.3582 277.699Z" stroke="white" stroke-width="1.5" stroke-miterlimit="10" stroke-linecap="round"/>
<path d="M21.7969 248.615V279.648" stroke="white" stroke-width="1.5" stroke-miterlimit="10" stroke-linecap="round"/>
<path d="M90.8507 228.143L79.1523 232.367V266.975L90.8507 264.213" stroke="white" stroke-width="1.5" stroke-miterlimit="10" stroke-linecap="round"/>
<path d="M76.3901 233.018V267.463L64.5293 269.575V237.08L76.3901 233.018Z" stroke="white" stroke-width="1.5" stroke-miterlimit="10" stroke-linecap="round"/>
<path d="M66.3174 236.43V269.25" stroke="white" stroke-width="1.5" stroke-miterlimit="10" stroke-linecap="round"/>
<path d="M81.4268 231.555V266.487" stroke="white" stroke-width="1.5" stroke-miterlimit="10" stroke-linecap="round"/>
<path d="M119.446 219.207L104.498 224.406V260.639L120.258 256.414L119.446 219.207Z" stroke="white" stroke-width="1.5" stroke-miterlimit="10" stroke-linecap="round"/>
<path d="M139.755 251.863L123.183 255.763V217.905L139.755 212.219" stroke="white" stroke-width="1.5" stroke-miterlimit="10" stroke-linecap="round"/>
<path d="M106.285 223.754V259.986" stroke="white" stroke-width="1.5" stroke-miterlimit="10" stroke-linecap="round"/>
<path d="M125.295 217.254V255.111" stroke="white" stroke-width="1.5" stroke-miterlimit="10" stroke-linecap="round"/>
<path d="M155.516 207.02V247.964L170.464 243.902V201.658L155.516 207.02Z" stroke="white" stroke-width="1.5" stroke-miterlimit="10" stroke-linecap="round"/>
<path d="M193.536 237.078L175.176 242.44V199.708L193.536 192.234V237.078Z" stroke="white" stroke-width="1.5" stroke-miterlimit="10" stroke-linecap="round"/>
<path d="M157.304 206.369V247.801" stroke="white" stroke-width="1.5" stroke-miterlimit="10" stroke-linecap="round"/>
<path d="M176.8 199.059V241.79" stroke="white" stroke-width="1.5" stroke-miterlimit="10" stroke-linecap="round"/>
<path d="M50.8802 287.447L39.5068 291.184V323.03L50.8802 320.918" stroke="white" stroke-width="1.5" stroke-miterlimit="10" stroke-linecap="round"/>
<path d="M32.3582 324.167V292.484L19.5225 295.409V326.117L32.3582 324.167Z" stroke="white" stroke-width="1.5" stroke-miterlimit="10" stroke-linecap="round"/>
<path d="M21.7969 294.92V325.953" stroke="white" stroke-width="1.5" stroke-miterlimit="10" stroke-linecap="round"/>
<path d="M90.8507 279.648L79.1523 283.223V317.831L90.8507 315.718" stroke="white" stroke-width="1.5" stroke-miterlimit="10" stroke-linecap="round"/>
<path d="M76.3901 283.871V318.316L64.5293 319.616V287.283L76.3901 283.871Z" stroke="white" stroke-width="1.5" stroke-miterlimit="10" stroke-linecap="round"/>
<path d="M66.3174 286.637V319.457" stroke="white" stroke-width="1.5" stroke-miterlimit="10" stroke-linecap="round"/>
<path d="M81.4268 282.574V317.507" stroke="white" stroke-width="1.5" stroke-miterlimit="10" stroke-linecap="round"/>
<path d="M119.446 274.285L104.498 277.86V314.255L120.258 311.655L119.446 274.285Z" stroke="white" stroke-width="1.5" stroke-miterlimit="10" stroke-linecap="round"/>
<path d="M139.755 309.057L123.183 311.169V273.312L139.755 269.25" stroke="white" stroke-width="1.5" stroke-miterlimit="10" stroke-linecap="round"/>
<path d="M106.285 277.375V313.77" stroke="white" stroke-width="1.5" stroke-miterlimit="10" stroke-linecap="round"/>
<path d="M125.295 272.824V310.844" stroke="white" stroke-width="1.5" stroke-miterlimit="10" stroke-linecap="round"/>
<path d="M155.516 265.837V306.619L170.464 304.182V261.938L155.516 265.837Z" stroke="white" stroke-width="1.5" stroke-miterlimit="10" stroke-linecap="round"/>
<path d="M193.536 299.632L175.176 303.207V260.475L193.536 254.951V299.632Z" stroke="white" stroke-width="1.5" stroke-miterlimit="10" stroke-linecap="round"/>
<path d="M157.304 265.35V306.619" stroke="white" stroke-width="1.5" stroke-miterlimit="10" stroke-linecap="round"/>
<path d="M176.8 259.988V302.72" stroke="white" stroke-width="1.5" stroke-miterlimit="10" stroke-linecap="round"/>
<path d="M327.093 112.621L346.59 125.619L346.915 160.064L326.28 148.204L327.093 112.621Z" stroke="white" stroke-width="1.5" stroke-miterlimit="10" stroke-linecap="round"/>
<path d="M300.608 133.58L322.218 145.928L321.893 109.208L301.096 94.9102" stroke="white" stroke-width="1.5" stroke-miterlimit="10" stroke-linecap="round"/>
<path d="M344.315 124.156L344.478 158.601" stroke="white" stroke-width="1.5" stroke-miterlimit="10" stroke-linecap="round"/>
<path d="M319.293 107.422L319.618 144.304" stroke="white" stroke-width="1.5" stroke-miterlimit="10" stroke-linecap="round"/>
<path d="M327.417 166.562L347.077 176.799L347.402 211.244L326.768 202.307L327.417 166.562Z" stroke="white" stroke-width="1.5" stroke-miterlimit="10" stroke-linecap="round"/>
<path d="M301.095 191.259L322.705 200.52L322.38 163.801L300.771 151.777" stroke="white" stroke-width="1.5" stroke-miterlimit="10" stroke-linecap="round"/>
<path d="M344.64 175.5L344.965 210.108" stroke="white" stroke-width="1.5" stroke-miterlimit="10" stroke-linecap="round"/>
<path d="M319.618 162.34L319.943 199.222" stroke="white" stroke-width="1.5" stroke-miterlimit="10" stroke-linecap="round"/>
<path d="M327.904 227.004L347.564 233.828L347.889 268.273L327.254 262.911L327.904 227.004Z" stroke="white" stroke-width="1.5" stroke-miterlimit="10" stroke-linecap="round"/>
<path d="M301.583 256.414L323.192 261.938L322.867 225.055L301.258 216.932" stroke="white" stroke-width="1.5" stroke-miterlimit="10" stroke-linecap="round"/>
<path d="M345.127 233.018L345.452 267.463" stroke="white" stroke-width="1.5" stroke-miterlimit="10" stroke-linecap="round"/>
<path d="M320.268 224.08L320.43 261.125" stroke="white" stroke-width="1.5" stroke-miterlimit="10" stroke-linecap="round"/>
<path d="M412.069 164.451L423.28 171.925V200.359L412.069 194.347" stroke="white" stroke-width="1.5" stroke-miterlimit="10" stroke-linecap="round"/>
<path d="M430.266 204.095V175.824L442.776 182.973V210.432L430.266 204.095Z" stroke="white" stroke-width="1.5" stroke-miterlimit="10" stroke-linecap="round"/>
<path d="M440.502 181.836V209.295" stroke="white" stroke-width="1.5" stroke-miterlimit="10" stroke-linecap="round"/>
<path d="M421.005 170.301V199.059" stroke="white" stroke-width="1.5" stroke-miterlimit="10" stroke-linecap="round"/>
<path d="M412.068 207.02L423.279 213.194V241.627L412.068 237.078" stroke="white" stroke-width="1.5" stroke-miterlimit="10" stroke-linecap="round"/>
<path d="M430.267 244.39V216.281L442.777 221.968V249.264L430.267 244.39Z" stroke="white" stroke-width="1.5" stroke-miterlimit="10" stroke-linecap="round"/>
<path d="M440.502 220.992V248.451" stroke="white" stroke-width="1.5" stroke-miterlimit="10" stroke-linecap="round"/>
<path d="M421.005 211.895V240.653" stroke="white" stroke-width="1.5" stroke-miterlimit="10" stroke-linecap="round"/>
<path d="M412.068 253.488L423.279 257.875V286.471L412.068 283.547" stroke="white" stroke-width="1.5" stroke-miterlimit="10" stroke-linecap="round"/>
<path d="M430.267 288.095V259.824L442.777 263.561V290.857L430.267 288.095Z" stroke="white" stroke-width="1.5" stroke-miterlimit="10" stroke-linecap="round"/>
<path d="M440.502 262.912V290.533" stroke="white" stroke-width="1.5" stroke-miterlimit="10" stroke-linecap="round"/>
<path d="M421.005 257.062V285.821" stroke="white" stroke-width="1.5" stroke-miterlimit="10" stroke-linecap="round"/>
<path d="M412.068 295.732L423.279 299.632V328.065L412.068 325.628" stroke="white" stroke-width="1.5" stroke-miterlimit="10" stroke-linecap="round"/>
<path d="M430.267 329.527V301.418L442.777 304.668V331.964L430.267 329.527Z" stroke="white" stroke-width="1.5" stroke-miterlimit="10" stroke-linecap="round"/>
<path d="M440.502 304.02V331.641" stroke="white" stroke-width="1.5" stroke-miterlimit="10" stroke-linecap="round"/>
<path d="M421.005 298.82V327.579" stroke="white" stroke-width="1.5" stroke-miterlimit="10" stroke-linecap="round"/>
<path d="M455.773 192.723L463.085 197.434V222.781L455.773 219.044" stroke="white" stroke-width="1.5" stroke-miterlimit="10" stroke-linecap="round"/>
<path d="M467.796 225.219V200.035L475.92 204.747V229.444L467.796 225.219Z" stroke="white" stroke-width="1.5" stroke-miterlimit="10" stroke-linecap="round"/>
<path d="M474.458 203.934V228.63" stroke="white" stroke-width="1.5" stroke-miterlimit="10" stroke-linecap="round"/>
<path d="M461.623 196.461V221.97" stroke="white" stroke-width="1.5" stroke-miterlimit="10" stroke-linecap="round"/>
<path d="M455.773 230.254L463.085 234.153V259.5L455.773 256.575" stroke="white" stroke-width="1.5" stroke-miterlimit="10" stroke-linecap="round"/>
<path d="M467.797 261.286V236.102L475.921 239.839V264.373L467.797 261.286Z" stroke="white" stroke-width="1.5" stroke-miterlimit="10" stroke-linecap="round"/>
<path d="M474.459 239.191V263.888" stroke="white" stroke-width="1.5" stroke-miterlimit="10" stroke-linecap="round"/>
<path d="M461.623 233.34V258.849" stroke="white" stroke-width="1.5" stroke-miterlimit="10" stroke-linecap="round"/>
<path d="M455.773 271.199L463.085 273.961V299.145L455.773 297.683" stroke="white" stroke-width="1.5" stroke-miterlimit="10" stroke-linecap="round"/>
<path d="M467.797 300.12V274.936L475.921 277.21V301.907L467.797 300.12Z" stroke="white" stroke-width="1.5" stroke-miterlimit="10" stroke-linecap="round"/>
<path d="M474.459 276.887V301.583" stroke="white" stroke-width="1.5" stroke-miterlimit="10" stroke-linecap="round"/>
<path d="M461.623 273.312V298.821" stroke="white" stroke-width="1.5" stroke-miterlimit="10" stroke-linecap="round"/>
<path d="M455.773 308.244L463.085 311.006V336.353L455.773 334.728" stroke="white" stroke-width="1.5" stroke-miterlimit="10" stroke-linecap="round"/>
<path d="M467.797 337.164V311.98L475.921 314.255V338.789L467.797 337.164Z" stroke="white" stroke-width="1.5" stroke-miterlimit="10" stroke-linecap="round"/>
<path d="M474.459 313.77V338.629" stroke="white" stroke-width="1.5" stroke-miterlimit="10" stroke-linecap="round"/>
<path d="M461.623 310.355V335.864" stroke="white" stroke-width="1.5" stroke-miterlimit="10" stroke-linecap="round"/>
<path d="M487.457 207.67L498.018 215.469V238.703L487.457 232.529" stroke="white" stroke-width="1.5" stroke-miterlimit="10" stroke-linecap="round"/>
<path d="M504.516 242.278V219.531L516.214 226.843V248.777L504.516 242.278Z" stroke="white" stroke-width="1.5" stroke-miterlimit="10" stroke-linecap="round"/>
<path d="M495.905 213.844V237.403" stroke="white" stroke-width="1.5" stroke-miterlimit="10" stroke-linecap="round"/>
<path d="M487.457 242.928L498.018 249.102V272.336L487.457 267.624" stroke="white" stroke-width="1.5" stroke-miterlimit="10" stroke-linecap="round"/>
<path d="M504.517 275.099V252.189L516.215 257.876V279.811L504.517 275.099Z" stroke="white" stroke-width="1.5" stroke-miterlimit="10" stroke-linecap="round"/>
<path d="M495.906 247.803V271.199" stroke="white" stroke-width="1.5" stroke-miterlimit="10" stroke-linecap="round"/>
<path d="M487.457 281.273L498.018 285.498V308.732L487.457 305.97" stroke="white" stroke-width="1.5" stroke-miterlimit="10" stroke-linecap="round"/>
<path d="M504.517 310.358V287.449L516.215 291.186V312.958L504.517 310.358Z" stroke="white" stroke-width="1.5" stroke-miterlimit="10" stroke-linecap="round"/>
<path d="M495.906 284.686V308.082" stroke="white" stroke-width="1.5" stroke-miterlimit="10" stroke-linecap="round"/>
<path d="M487.457 315.879L498.018 319.453V342.688L487.457 340.575" stroke="white" stroke-width="1.5" stroke-miterlimit="10" stroke-linecap="round"/>
<path d="M504.517 343.825V321.078L516.215 324.003V345.775L504.517 343.825Z" stroke="white" stroke-width="1.5" stroke-miterlimit="10" stroke-linecap="round"/>
<path d="M495.906 318.805V342.201" stroke="white" stroke-width="1.5" stroke-miterlimit="10" stroke-linecap="round"/>
<path d="M362.35 137.967L379.247 148.69V180.048L362.512 171.275" stroke="white" stroke-width="1.5" stroke-miterlimit="10" stroke-linecap="round"/>
<path d="M383.146 150.803L383.309 181.998L400.532 190.122V161.201L383.146 150.803Z" stroke="white" stroke-width="1.5" stroke-miterlimit="10" stroke-linecap="round"/>
<path d="M397.769 159.576L397.931 188.822" stroke="white" stroke-width="1.5" stroke-miterlimit="10" stroke-linecap="round"/>
<path d="M375.997 146.578L376.16 178.424" stroke="white" stroke-width="1.5" stroke-miterlimit="10" stroke-linecap="round"/>
<path d="M362.675 186.223L379.41 194.671V226.192L362.675 219.368" stroke="white" stroke-width="1.5" stroke-miterlimit="10" stroke-linecap="round"/>
<path d="M383.31 196.459L383.472 227.655L400.695 233.666V204.908L383.31 196.459Z" stroke="white" stroke-width="1.5" stroke-miterlimit="10" stroke-linecap="round"/>
<path d="M397.933 203.607L398.095 232.691" stroke="white" stroke-width="1.5" stroke-miterlimit="10" stroke-linecap="round"/>
<path d="M376.16 193.047L376.323 224.892" stroke="white" stroke-width="1.5" stroke-miterlimit="10" stroke-linecap="round"/>
<path d="M362.837 239.516L379.572 245.69V277.048L362.837 272.661" stroke="white" stroke-width="1.5" stroke-miterlimit="10" stroke-linecap="round"/>
<path d="M383.472 246.828L383.634 278.024L400.857 281.598V252.677L383.472 246.828Z" stroke="white" stroke-width="1.5" stroke-miterlimit="10" stroke-linecap="round"/>
<path d="M398.095 251.863L398.257 281.109" stroke="white" stroke-width="1.5" stroke-miterlimit="10" stroke-linecap="round"/>
<path d="M376.322 244.553L376.485 276.236" stroke="white" stroke-width="1.5" stroke-miterlimit="10" stroke-linecap="round"/>
<path d="M362.999 286.957L379.734 291.831V323.189L362.999 320.102" stroke="white" stroke-width="1.5" stroke-miterlimit="10" stroke-linecap="round"/>
<path d="M383.634 292.645L383.796 323.84L401.019 326.115V297.356L383.634 292.645Z" stroke="white" stroke-width="1.5" stroke-miterlimit="10" stroke-linecap="round"/>
<path d="M398.257 296.543L398.419 325.789" stroke="white" stroke-width="1.5" stroke-miterlimit="10" stroke-linecap="round"/>
<path d="M376.484 290.857L376.647 322.703" stroke="white" stroke-width="1.5" stroke-miterlimit="10" stroke-linecap="round"/>
<path d="M328.392 280.297L347.89 284.684L348.215 319.129L327.58 316.204L328.392 280.297Z" stroke="white" stroke-width="1.5" stroke-miterlimit="10" stroke-linecap="round"/>
<path d="M302.071 313.118L323.681 315.88L323.356 278.998L301.746 273.799" stroke="white" stroke-width="1.5" stroke-miterlimit="10" stroke-linecap="round"/>
<path d="M345.615 284.197L345.778 318.642" stroke="white" stroke-width="1.5" stroke-miterlimit="10" stroke-linecap="round"/>
<path d="M320.594 278.348L320.919 315.392" stroke="white" stroke-width="1.5" stroke-miterlimit="10" stroke-linecap="round"/>
<path d="M285.173 91.0124V130.494L260.477 117.659V76.0645L285.173 91.0124Z" stroke="white" stroke-width="1.5" stroke-miterlimit="10" stroke-linecap="round"/>
<path d="M222.619 96.6983L252.84 113.433V71.1894L222.619 51.3672V96.6983Z" stroke="white" stroke-width="1.5" stroke-miterlimit="10" stroke-linecap="round"/>
<path d="M282.086 89.2246L282.248 129.194" stroke="white" stroke-width="1.5" stroke-miterlimit="10" stroke-linecap="round"/>
<path d="M250.24 69.4023V111.809" stroke="white" stroke-width="1.5" stroke-miterlimit="10" stroke-linecap="round"/>
<path d="M285.173 148.853L285.336 188.335L260.639 178.424L260.477 136.83L285.173 148.853Z" stroke="white" stroke-width="1.5" stroke-miterlimit="10" stroke-linecap="round"/>
<path d="M222.782 162.015L253.003 175.175V132.769L222.782 116.684V162.015Z" stroke="white" stroke-width="1.5" stroke-miterlimit="10" stroke-linecap="round"/>
<path d="M282.249 147.393V187.362" stroke="white" stroke-width="1.5" stroke-miterlimit="10" stroke-linecap="round"/>
<path d="M250.24 131.469L250.403 173.875" stroke="white" stroke-width="1.5" stroke-miterlimit="10" stroke-linecap="round"/>
<path d="M285.337 214.658L285.5 253.977L260.803 247.803L260.641 206.209L285.337 214.658Z" stroke="white" stroke-width="1.5" stroke-miterlimit="10" stroke-linecap="round"/>
<path d="M222.945 236.917L253.166 245.528L253.004 203.284L222.945 191.586V236.917Z" stroke="white" stroke-width="1.5" stroke-miterlimit="10" stroke-linecap="round"/>
<path d="M282.412 213.52V253.489" stroke="white" stroke-width="1.5" stroke-miterlimit="10" stroke-linecap="round"/>
<path d="M250.404 202.309L250.567 244.715" stroke="white" stroke-width="1.5" stroke-miterlimit="10" stroke-linecap="round"/>
<path d="M285.499 271.199V310.681L260.965 306.944L260.803 265.35L285.499 271.199Z" stroke="white" stroke-width="1.5" stroke-miterlimit="10" stroke-linecap="round"/>
<path d="M223.108 300.282L253.329 305.644L253.166 263.4L222.945 254.951L223.108 300.282Z" stroke="white" stroke-width="1.5" stroke-miterlimit="10" stroke-linecap="round"/>
<path d="M282.574 270.549V310.518" stroke="white" stroke-width="1.5" stroke-miterlimit="10" stroke-linecap="round"/>
<path d="M250.566 262.588L250.729 304.994" stroke="white" stroke-width="1.5" stroke-miterlimit="10" stroke-linecap="round"/>
</g>
</svg>
