<svg width="182" height="181" viewBox="0 0 182 181" fill="none" xmlns="http://www.w3.org/2000/svg">
<path d="M124.337 126.606C123.147 125.26 123.088 123.191 124.539 121.653C125.879 120.234 127.212 118.585 128.433 117.054C133.096 111.168 137.758 105.281 142.421 99.3948C142.303 99.2832 142.066 99.0599 141.948 98.9483C142.73 98.1204 143.629 97.4043 144.411 96.5765C145.645 95.5055 147.117 94.6578 148.654 96.1092C150.191 97.5606 149.785 99.413 148.905 100.819C147.473 103.046 145.812 105.28 144.144 107.283C140.479 111.876 136.822 116.698 133.157 121.29C131.712 123.058 130.386 124.936 128.935 126.474C127.595 127.893 125.532 128.182 124.337 126.606Z" fill="#FF5E3A"/>
<path d="M109.038 130.227C108.335 129.787 107.836 128.421 107.921 127.383C108.006 126.345 108.433 125.182 109.096 124.243C110.751 121.779 112.642 119.539 114.645 117.18C118.421 112.47 122.191 107.529 126.203 103.042C130.662 98.0818 135.358 93.3447 139.936 88.4961C139.699 88.2728 139.581 88.1612 139.344 87.9379C140.684 86.5187 142.017 84.8697 143.593 83.6739C144.27 83.1943 145.997 83.2596 146.47 83.7062C147.062 84.2644 147.108 85.8737 146.911 87.0298C146.819 87.8378 146.15 88.5473 145.48 89.2569C140.797 94.4537 136.226 99.5323 131.662 104.841C129.994 106.845 128.445 108.96 126.776 110.964C125.89 112.14 125.01 113.546 124.123 114.722C120.669 118.618 116.86 122.179 114.707 127.303C114.168 128.584 112.934 129.655 111.916 130.259C111.239 130.739 109.86 130.778 109.038 130.227Z" fill="#FF5E3A"/>
<path d="M68.894 130.551C68.2829 129.303 68.5649 127.109 69.0966 125.598C69.5234 124.436 71.0012 123.818 71.8943 122.872C76.4717 118.023 80.8192 113.181 85.2783 108.221C87.7345 105.619 90.3022 102.899 92.6401 100.186C95.8646 96.2965 98.9707 92.2955 102.202 88.636C105.544 84.8583 109.36 81.5272 112.585 77.6379C116.032 73.512 119.014 69.1695 122.225 64.8203C122.671 64.3473 123.111 63.6444 123.571 63.6311C124.832 63.4798 126.323 63.3218 127.263 63.9851C127.854 64.5433 127.914 66.6124 127.599 67.6569C126.955 69.2861 125.734 70.8169 124.624 72.2294C117.052 80.9607 109.25 89.6987 101.678 98.4301C94.1064 107.161 86.6462 115.775 79.0743 124.506L79.1925 124.618C77.2946 126.628 75.5149 128.75 73.3871 130.767C71.9225 131.845 69.9782 132.246 68.894 130.551Z" fill="#FF5E3A"/>
<path d="M127.99 65.6426L129.528 67.0939C128.713 66.7722 128.24 66.3257 127.99 65.6426Z" fill="#FF5E3A"/>
<path d="M139.58 76.582L140.763 77.6985C140.644 77.5868 140.533 77.7051 140.415 77.5934C140.185 77.6001 139.823 77.0352 139.58 76.582Z" fill="#FF5E3A"/>
<path d="M94.1593 128.813C92.6029 130.699 90.9936 130.745 89.4562 129.294C87.9122 127.612 87.9842 126.115 89.7705 124.223C90.4403 123.513 90.9919 122.692 91.5502 122.1C95.0111 118.434 98.4654 114.538 101.926 110.872C103.043 109.69 104.159 108.507 105.276 107.325C109.065 103.074 112.618 98.5999 116.525 94.4608C121.437 89.2574 126.586 84.2772 131.735 79.2971C131.617 79.1855 131.499 79.0738 131.38 78.9622C132.155 77.9045 132.924 76.6168 133.823 75.9006C134.5 75.421 135.873 75.1514 136.457 75.4797C137.16 75.9197 137.541 77.1742 137.686 78.2055C137.713 79.1251 137.404 80.3994 136.853 81.2206C135.414 83.2178 133.865 85.3333 132.072 86.9955C127.146 91.7392 121.754 96.2661 117.065 101.233C112.153 106.436 107.832 112.198 103.274 117.736C100.391 121.501 97.2787 125.272 94.1593 128.813Z" fill="#FF5E3A"/>
<path d="M53.4696 127.789C52.9966 127.343 53.2852 125.379 53.7186 124.446C54.4736 122.698 55.5834 121.286 56.6933 119.873C63.3786 112.318 69.9457 104.651 76.8676 97.319C81.11 92.8251 85.9438 88.8894 90.3045 84.5072C94.8885 79.8884 99.236 75.0464 103.813 70.1978L103.34 69.7512C109.606 63.5885 115.864 57.1958 122.129 51.0331C123.358 49.7322 125.282 48.6414 126.609 50.7891C128.048 52.8185 126.242 54.021 125.007 55.0919C122.091 57.7069 119.287 60.2036 116.726 63.1535C111.597 68.8233 106.705 74.7165 101.694 80.498C98.0162 84.6304 94.4502 88.6446 90.5361 92.5538C86.9569 96.1082 82.7864 99.1044 79.2138 102.889C72.1935 110.799 65.528 119.044 58.8558 127.059C58.2976 127.65 57.7526 128.702 57.2928 128.715C55.9134 128.755 54.4157 128.683 53.4696 127.789Z" fill="#FF5E3A"/>
<path d="M58.2434 56.6043C56.4695 54.9296 57.2246 53.1822 58.3278 51.5398C58.8794 50.7186 59.5492 50.009 60.1075 49.4177C63.2335 46.1065 66.2412 42.6836 69.2556 39.4906C71.6001 37.0071 73.7147 34.5302 76.1775 32.1584C77.9704 30.4962 79.9345 30.7848 80.9004 32.3677C82.2277 34.5154 80.8814 35.7046 79.5351 36.8938C75.6209 40.803 71.8251 44.8238 67.9109 48.733C68.0292 48.8446 68.1475 48.9563 68.2657 49.0679C66.4926 51.4199 64.6013 53.6602 62.9399 55.8939C61.6068 57.5429 60.0173 58.2789 58.2434 56.6043Z" fill="#FF5E3A"/>
<path d="M158.613 122.284C157.89 121.154 158.514 118.835 158.579 117.108C158.809 117.101 159.039 117.094 159.269 117.088C160.608 115.669 161.83 114.138 163.413 113.172C164.319 112.686 166.158 112.633 166.986 113.414C168.28 114.412 168.675 116.127 167.572 117.769C166.239 119.418 164.905 121.067 163.336 122.493C161.766 123.919 159.704 124.208 158.613 122.284Z" fill="#FF5E3A"/>
<path d="M155.392 114.322C151.484 118.461 147.695 122.712 143.669 126.74C143.111 127.331 141.85 127.482 141.036 127.161C140.451 126.832 139.597 125.131 139.813 124.665C141.008 122.214 141.953 119.081 143.871 117.76C148.16 114.876 150.557 110.205 153.663 106.204C154.661 104.91 155.436 103.852 157.183 104.607C159.049 105.474 159.443 107.188 158.57 108.824C157.703 110.689 156.489 112.45 155.392 114.322C155.51 114.434 155.51 114.434 155.392 114.322Z" fill="#FF5E3A"/>
<path d="M166.898 102.371L168.436 103.822C167.621 103.501 167.148 103.054 166.898 102.371Z" fill="#FF5E3A"/>
<path d="M58.3963 37.9617C57.2005 36.3855 57.9688 35.0978 58.9669 33.8036C59.6302 32.8641 60.3 32.1546 60.9633 31.2151C60.845 31.1035 60.845 31.1035 60.7268 30.9918C63.3012 28.5018 65.7573 25.9 68.2201 23.5282C69.4482 22.2274 70.8408 22.6475 71.6819 23.8888C72.2798 24.6769 72.5626 26.5095 72.116 26.9825C69.1215 30.8653 65.8971 34.7546 62.6661 38.414C61.6613 39.4784 59.7038 39.4197 58.3963 37.9617Z" fill="#FF5E3A"/>
<path d="M152.826 89.0859L154.245 90.4257C153.897 90.3206 153.542 89.9857 153.069 89.5391C152.951 89.4275 152.833 89.3158 152.826 89.0859Z" fill="#FF5E3A"/>
<path d="M91.9219 31.5898L92.5132 32.1481C92.3949 32.0364 92.0467 31.9314 91.9285 31.8198C91.9285 31.8198 92.0401 31.7015 91.9219 31.5898Z" fill="#FF5E3A"/>
<path d="M59.26 19.9894C58.6621 19.2013 58.8457 17.5853 58.438 15.4112C60.5071 15.3516 62.2149 14.7273 63.1543 15.3905C64.6785 16.3821 64.7314 18.2213 63.3917 19.6404C62.2819 21.0529 60.5741 21.6773 59.26 19.9894Z" fill="#FF5E3A"/>
<path d="M79.2676 19.6445L81.3963 21.6541C80.9298 21.4374 80.4568 20.9909 79.9837 20.5443C79.629 20.2094 79.3925 19.9861 79.2676 19.6445Z" fill="#FF5E3A"/>
<path d="M53.456 101.782C52.1419 100.094 52.7853 98.4651 54.7949 96.3364C58.709 92.4272 62.3866 88.2947 66.1825 84.2739C70.425 79.78 74.6608 75.0563 78.785 70.4507C81.1295 67.9673 83.5922 65.5955 85.9368 63.112C85.8185 63.0004 85.8185 63.0004 85.7002 62.8888C89.4961 58.8679 93.5219 54.8405 97.1995 50.708C99.3207 48.461 101.087 45.8792 103.202 43.4024C104.423 41.8716 106.019 41.3655 107.668 42.6986C109.317 44.0317 108.444 45.6675 107.564 47.0733C107.348 47.5398 107.013 47.8945 106.678 48.2493C100.872 54.3988 95.0667 60.5483 89.2679 66.9277C85.4786 71.1785 81.8076 75.5409 78.0184 79.7916C74.4524 83.8058 70.9981 87.7017 67.4321 91.716C64.536 95.0206 61.6399 98.3253 58.7372 101.4C56.8392 103.41 54.8817 103.352 53.456 101.782Z" fill="#FF5E3A"/>
<path d="M113.682 52.1328L114.983 53.3609C114.864 53.2492 114.753 53.3675 114.634 53.2559C114.168 53.0392 113.925 52.586 113.682 52.1328Z" fill="#FF5E3A"/>
<path d="M62.674 74.6541C61.5576 75.8367 60.5528 76.901 59.4363 78.0836C59.5546 78.1952 59.6729 78.3069 59.6795 78.5368C58.1098 79.9625 56.7701 81.3816 55.0823 82.6957C53.6243 84.0032 52.2184 83.1233 51.489 81.7637C51.0093 81.0872 51.1863 79.2414 51.6263 78.5384C54.1808 75.3587 56.9653 72.1723 59.7564 69.2158C63.329 65.4315 67.1447 62.1003 70.7173 58.316C75.9711 52.9877 80.9884 47.4361 86.124 41.9962C86.6823 41.4049 87.4704 40.807 88.2717 40.6689C89.8744 40.3927 91.1687 41.3908 90.8734 43.125C90.3549 45.0957 89.4949 47.1913 88.1551 48.6105C84.3593 52.6313 80.2086 56.3172 76.5244 60.2197C71.9404 64.8385 67.2514 69.8054 62.674 74.6541Z" fill="#FF5E3A"/>
<path d="M101.145 40.2988L102.918 41.9735C102.57 41.8685 102.215 41.5335 101.861 41.1986C101.506 40.8637 101.269 40.6404 101.145 40.2988Z" fill="#FF5E3A"/>
</svg>
