<svg width="37" height="74" viewBox="0 0 37 74" fill="none" xmlns="http://www.w3.org/2000/svg">
<path d="M18.3667 11.1054C15.6357 12.5619 12.7226 12.9261 9.99158 14.2005C7.07847 15.6571 4.16534 17.4778 1.4343 19.4806C0.706025 20.0268 0.159861 22.0295 0.34193 22.7578C0.888138 24.0323 2.16256 24.7606 2.89083 25.6709C7.2605 23.6681 10.902 22.2116 14.3613 20.3909C18.5489 18.2061 22.7365 16.0212 27.1061 13.6543C35.1172 9.28468 43.1282 5.27915 51.1392 0.72742C51.3213 0.545351 51.5034 0.545351 51.8675 0.363281L37.6661 0.363281C36.0275 1.27363 34.3889 2.18397 32.7502 2.91225C27.6523 5.64329 23.1005 8.5564 18.3667 11.1054Z" fill="#FF5E3A"/>
<path d="M61.8817 9.64924C59.1507 11.2879 56.2376 12.3803 53.5065 14.0189C50.2293 15.8396 47.1341 18.0244 44.0389 20.0272C43.3106 20.5734 42.4003 21.1196 41.672 21.4837C35.6638 24.3969 29.6554 26.9458 23.8292 29.8589C17.4567 33.1362 11.0843 36.5955 4.71189 40.0548C2.70913 41.1472 0.706364 42.6038 0.160156 44.7886C0.160156 47.8838 1.98087 49.5224 4.1657 48.6121C5.80433 48.0659 7.44302 47.3376 8.89957 46.2452C19.8237 38.0521 31.6582 33.5003 43.1286 27.492C53.6886 22.03 63.7024 15.2934 74.0804 9.10304C78.8142 6.18993 83.73 3.64096 88.6459 0.909918C89.01 0.727849 89.3742 0.36371 89.9204 0.181641L77.3576 0.181641C75.719 1.09199 73.8983 2.1844 72.2597 3.09475C68.4362 5.27958 65.1589 7.64648 61.8817 9.64924Z" fill="#FF5E3A"/>
<path d="M80.6354 19.2993C74.263 23.1228 68.2547 27.3104 61.8823 31.3159C52.5968 37.1421 43.4933 43.1504 34.2078 48.4304C26.5608 52.8001 18.5499 56.2594 10.7209 60.447C7.62571 62.0856 4.71255 64.6346 1.79944 66.8194C-0.203319 68.276 -0.385411 70.2787 0.524936 72.2815C1.61735 74.2843 3.07391 74.4663 5.07667 73.1919C7.07943 71.7353 9.08217 69.9146 11.0849 68.6401C18.3677 64.6346 25.6505 60.6291 33.1154 56.8056C35.8464 55.3491 38.5775 54.0746 41.3085 52.2539C51.5044 45.6994 61.7002 38.9628 72.0781 32.4083C83.3664 25.3076 94.6548 18.5711 105.943 11.6524C112.498 7.64691 118.87 3.82345 125.425 0L113.044 0C112.498 0.364139 111.951 0.728277 111.405 0.910346C101.209 7.28277 90.8313 13.2911 80.6354 19.2993Z" fill="#FF5E3A"/>
</svg>
