<svg width="101" height="182" viewBox="0 0 101 182" fill="none" xmlns="http://www.w3.org/2000/svg">
<path d="M19.7498 73.162C16.7455 74.7295 13.7411 76.4276 10.6061 77.9951C7.99361 79.3013 5.38114 80.3463 2.37677 81.7832C1.72365 81.1301 0.809249 80.6076 0.548 79.6932C0.286751 79.1707 0.809297 77.7338 1.33179 77.342C3.29116 75.9051 5.38117 74.5989 7.47116 73.5539C9.43053 72.6395 11.6511 72.2476 13.4799 71.3332C16.8761 69.5045 20.2723 67.4145 23.6685 65.5858C30.8529 61.667 38.1679 58.0095 45.3523 54.0908C52.1447 50.4333 58.8066 46.384 65.5991 42.7265C66.2522 42.3346 67.2971 42.204 67.8196 42.5959C68.3421 42.9877 68.6034 44.1633 68.3421 44.8165C67.9503 45.6002 67.1665 46.384 66.3828 46.7758C56.5859 52.5233 46.7891 58.4014 36.8617 64.0183C31.3754 67.1533 25.4973 70.027 19.7498 73.162Z" fill="#310000"/>
<path d="M17.3971 59.1855C13.0865 61.6674 8.90654 64.2799 4.59593 66.8924C3.02844 67.8068 1.46095 68.1986 0.677201 65.978C-0.106546 63.888 1.06907 62.5818 2.63657 61.798C5.77155 59.9693 9.03715 58.4018 12.1721 56.573C14.3928 55.2668 16.4827 53.4381 18.834 52.1318C25.757 48.2131 32.8108 44.6862 39.8645 40.7675C45.2201 37.7631 50.4451 34.6281 55.6701 31.4932C56.1926 31.2319 56.5844 30.9707 57.3682 30.7094C57.8907 30.9707 58.8051 31.2319 58.9357 31.7544C59.1969 32.4075 59.0663 33.7138 58.6744 34.3669C58.2825 35.1506 57.3682 35.9344 56.5845 36.3263C51.2288 39.4612 45.7426 42.4656 40.387 45.6006C32.8108 50.1724 25.104 54.6137 17.3971 59.1855Z" fill="#310000"/>
<path d="M30.0666 100.988C28.2379 102.164 26.1479 103.078 24.1885 104.254C18.9635 107.128 13.6079 109.871 8.3829 112.744C6.81541 113.659 5.50918 114.965 4.07231 116.01C2.76607 116.924 1.59045 116.794 0.806701 115.357C0.0229543 113.92 0.153595 112.483 1.72109 111.438C3.81108 109.871 5.9011 108.042 8.12172 106.866C13.7386 103.862 19.3554 101.38 24.9722 98.2451C31.6341 94.457 38.2959 90.1464 44.8272 85.9664C49.2684 83.0927 53.7096 80.0883 58.2814 77.3452C65.5964 72.904 73.042 68.724 80.357 64.4134C82.3164 63.2378 84.1451 62.0621 86.1044 60.8865C89.3701 59.0578 92.5051 57.229 96.1625 55.139C97.0769 56.0534 98.1219 56.7065 98.3832 57.7515C98.5138 58.4047 97.4688 59.9721 96.8157 60.4946C94.9869 61.6703 93.0276 62.1928 91.1988 63.2378C86.2351 66.1115 81.2714 69.1159 76.4383 72.1202C68.3396 77.084 60.2408 81.9171 52.1421 87.0114C44.6965 91.4526 37.5122 96.2857 30.0666 100.988Z" fill="#310000"/>
<path d="M53.4534 70.0279C46.0078 74.4691 38.8235 79.1716 31.2473 83.2209C23.0179 87.5315 14.3967 90.9278 6.68988 96.6752C5.64488 97.459 4.4693 97.9815 3.29368 98.3734C1.72618 98.8959 0.419922 97.8509 0.419922 95.6302C0.681171 94.0628 2.24866 93.1484 3.68553 92.234C8.25739 89.7522 12.6986 87.1397 17.4011 84.919C21.5811 82.8291 25.8917 80.8697 30.2023 78.9103C30.8554 78.6491 31.3779 78.2572 31.9004 77.8653C34.121 76.4285 36.4723 74.861 38.6929 73.5547C40.6522 72.3791 42.7423 71.5953 44.7016 70.4197C47.1835 68.9829 49.5347 67.2847 52.0166 65.8479C57.6334 62.5823 63.2503 59.3166 68.8672 56.051C72.6553 53.8304 76.3127 51.7404 80.2314 49.6504C80.7539 49.3892 81.9296 49.5198 82.1908 49.9117C82.5827 50.4342 82.5827 51.8711 82.1908 52.3936C81.5377 53.4386 80.4927 54.3529 79.5783 55.006C74.3533 58.141 69.1284 61.1454 63.9034 64.1498C60.3765 66.1091 56.9803 67.9379 53.4534 70.0279Z" fill="#310000"/>
<path d="M69.1273 112.871C66.9067 114.178 64.5555 115.484 62.3349 116.659C60.3755 117.704 58.2855 118.358 56.3261 119.403C53.8442 120.709 51.493 122.146 49.0112 123.452C43.3943 126.326 37.7774 129.199 32.1606 131.943C28.3725 133.902 24.715 135.731 20.7962 137.559C20.2737 137.821 19.0981 137.69 18.8369 137.298C18.445 136.776 18.445 135.6 18.8369 135.078C19.49 134.163 20.535 133.379 21.4494 132.857C26.6743 130.114 31.8993 127.501 37.1243 124.889C40.6512 123.191 44.0474 121.493 47.5743 119.664C55.0199 115.876 62.2042 111.565 69.7804 108.038C78.0098 104.25 86.631 101.376 94.3379 96.1514C95.3829 95.4983 96.5585 94.9758 97.7341 94.5839C98.9097 94.1921 99.9547 94.7146 100.347 95.8902V97.4577C99.8241 98.5027 98.5178 99.2864 97.2116 99.9395C92.6397 102.16 88.1985 104.381 83.496 106.34C79.316 108.169 75.0054 109.867 70.6948 111.696C70.3029 112.218 69.6498 112.61 69.1273 112.871Z" fill="#310000"/>
<path d="M65.4639 159.767C64.8108 159.897 63.7658 159.375 63.5045 158.852C63.2433 158.33 63.6352 157.154 64.027 156.501C64.4189 155.979 65.2026 155.587 65.8557 155.326C70.4276 152.844 74.9994 150.362 79.5713 147.749C84.0125 145.398 88.3232 142.916 92.7644 140.696C94.4625 139.781 96.2913 139.128 98.3813 138.214C99.0344 138.606 100.079 138.867 100.471 139.389V140.826C100.21 141.349 99.9488 142.002 99.5569 142.524C99.165 143.177 98.12 143.439 97.3363 143.7C93.2869 145.529 89.2375 146.966 85.3188 149.056C79.5713 152.06 73.9545 155.326 68.207 158.591C67.2927 159.114 66.3782 159.767 65.4639 159.767Z" fill="#310000"/>
<path d="M45.3527 153.496C44.8302 153.757 44.4383 153.887 43.6545 154.279C43.132 154.018 42.2177 153.887 42.0871 153.365C41.8259 152.712 41.9564 151.667 42.3483 151.014C42.7402 150.23 43.6546 149.707 44.4383 149.185C49.7939 146.442 55.2801 143.829 60.6357 141.086C68.3426 137.167 75.9188 133.118 83.6257 129.199C87.9363 126.979 92.1162 124.628 96.4268 122.407C97.9943 121.623 99.5618 121.231 100.346 123.191C100.346 123.191 100.346 123.321 100.476 123.321V125.019C100.084 125.803 99.4312 126.326 98.5168 126.848C95.3818 128.416 92.1162 129.853 88.9812 131.42C86.7606 132.596 84.6707 134.163 82.3194 135.339C75.3963 138.735 68.3426 141.87 61.2888 145.266C55.8026 148.009 50.5777 150.752 45.3527 153.496Z" fill="#310000"/>
<path d="M55.5436 133.772C48.7511 137.038 42.0893 140.434 35.2968 143.83C34.6437 144.092 33.5987 144.222 33.0762 143.961C32.5537 143.7 32.2924 142.524 32.5537 142.002C32.9455 141.218 33.7293 140.565 34.513 140.173C44.3099 135.079 54.1067 129.984 64.0342 125.021C69.7817 122.147 75.5292 119.534 81.2767 116.791C84.281 115.354 87.2854 113.917 90.4204 112.611C93.0329 111.436 95.6453 110.521 98.6497 109.346C99.1722 109.868 99.9559 110.26 100.348 110.913V112.219C100.217 112.611 99.9559 113.003 99.6947 113.134C97.7353 114.44 95.6453 115.485 93.5553 116.399C91.5959 117.183 89.3754 117.575 87.5466 118.359C84.1504 119.926 80.7542 121.886 77.3579 123.453C70.043 127.111 62.728 130.376 55.5436 133.772Z" fill="#310000"/>
<path d="M56.0652 105.818C51.624 108.3 47.1828 111.043 42.6109 113.395C35.296 117.313 27.8504 120.971 20.5355 124.759C18.5761 125.804 16.7473 126.849 14.7879 127.894C11.5223 129.592 8.38733 131.16 4.72985 132.988C3.81548 132.205 2.77047 131.682 2.50922 130.768C2.37859 130.245 3.4236 128.808 4.07673 128.286C5.90547 127.241 7.86482 126.718 9.69356 125.804C14.6573 123.322 19.6211 120.71 24.4542 118.097C32.5529 113.786 40.6516 109.476 48.7503 105.035C56.1959 100.985 63.3803 96.6747 70.8259 92.6253C72.6546 91.5803 74.7446 90.7966 76.704 89.7516C81.929 87.2697 87.2845 84.7879 92.5095 82.306C94.077 81.5222 95.3832 80.3466 96.8201 79.4323C98.1263 78.6485 99.302 78.7791 100.086 79.9548C100.216 80.0854 100.216 80.3466 100.347 80.4773V82.1754C100.216 82.5672 99.8244 83.0897 99.1713 83.351C97.0813 84.7879 94.9914 86.2247 92.7708 87.4003C87.1539 90.0128 81.537 92.2335 75.9202 94.9766C69.2583 98.3728 62.7271 102.161 56.0652 105.818Z" fill="#310000"/>
<path d="M82.3217 172.177C82.0605 171.654 82.7136 170.479 83.1054 169.564C83.2361 169.303 83.7585 169.172 84.1504 168.911C87.0241 167.474 89.8979 166.038 92.7717 164.601C94.3392 163.817 96.0373 163.164 97.6048 162.511C99.1723 161.988 99.6948 162.772 100.217 164.209V164.862C99.4335 165.646 98.6498 166.56 97.7354 167.083C96.2985 167.866 94.731 168.389 93.2941 169.042C90.4204 170.348 87.5467 171.785 84.6729 172.83C84.0198 173.222 82.583 172.83 82.3217 172.177Z" fill="#310000"/>
<path d="M98.3856 175.571C99.5612 175.309 100.084 175.832 100.345 176.616V178.967C99.8225 180.143 97.9937 180.012 96.8181 181.188C96.165 180.404 95.3812 179.751 95.12 178.967C94.8587 177.791 96.9487 175.832 98.3856 175.571Z" fill="#310000"/>
<path d="M71.8703 166.822C71.609 166.43 72.0009 164.993 72.5234 164.601C73.3071 163.817 74.4827 163.295 75.5277 162.772C78.7933 161.074 82.1896 159.376 85.5858 157.678C89.6352 155.719 93.6845 153.89 97.7339 152.061C99.0401 151.539 99.9545 151.931 100.346 152.976V154.935C99.8239 156.502 97.8645 157.809 95.9051 158.201C93.8151 158.592 91.7252 159.115 89.7658 160.029C84.5409 162.381 79.4465 165.124 74.2215 167.606C73.5684 167.736 72.2621 167.344 71.8703 166.822Z" fill="#310000"/>
<path d="M18.7057 10.203C18.9669 10.8561 18.3138 12.1624 17.9219 13.2074C17.7913 13.4686 17.2688 13.7299 16.8769 13.8605C14.0031 15.428 11.1294 17.1261 8.2557 18.6936C6.68821 19.608 4.99008 20.3917 3.42258 21.0448C1.72446 21.8286 1.20195 20.653 0.548828 18.563C1.4632 17.6486 2.24699 16.473 3.29199 15.8198C4.72886 14.9055 6.2963 14.2524 7.73317 13.5992C10.6069 12.1624 13.4807 10.5949 16.3544 9.28863C17.0076 9.02738 18.4444 9.54989 18.7057 10.203Z" fill="#310000"/>
<path d="M11.2595 24.3109C16.4845 21.5678 21.5789 18.4328 26.8039 15.6897C27.457 15.2978 28.6326 15.8203 29.0245 16.3428C29.2857 16.7347 28.8939 18.4328 28.3714 18.9553C27.5876 19.8697 26.4119 20.3921 25.3669 21.0453C22.1013 23.0046 18.7052 24.964 15.3089 26.7928C11.2596 29.0134 7.21014 31.1034 3.16078 33.1934C1.46267 33.9771 0.287109 32.9321 0.287109 30.9727C0.287109 28.8827 2.63835 26.7928 4.85897 26.4009C7.07958 25.8784 9.30015 25.3559 11.2595 24.3109Z" fill="#310000"/>
<path d="M2.63691 6.4137C0.808172 6.80558 0.546875 5.2381 0.546875 3.6706C0.546875 1.05811 2.76755 1.71122 4.20442 0.143725C4.85755 1.0581 5.64128 1.71122 5.90253 2.75622C6.16378 3.93184 4.07378 6.02183 2.63691 6.4137Z" fill="#310000"/>
<path d="M35.2934 29.4022C30.7216 32.2759 26.1497 35.1497 21.5778 38.0234C17.1366 40.7665 12.826 43.5096 8.38473 46.1221C6.68661 47.1671 4.85788 47.8202 2.76789 48.8652C1.98414 48.3427 0.808509 48.0815 0.54726 47.1671C0.286011 46.3834 0.939197 44.8159 1.59232 43.9015C1.98419 43.2484 3.02912 42.8565 3.81287 42.4646C7.86223 40.5053 11.9116 38.6765 15.8303 36.4559C21.5778 33.0597 27.1947 29.2716 32.9422 25.6141C33.8566 25.0916 34.7709 24.4385 35.6853 24.3078C36.3384 24.1772 37.3834 24.6997 37.6446 25.3528C37.9059 26.0059 37.514 27.1816 37.1221 27.9653C36.7302 28.6184 35.9465 29.0103 35.2934 29.4022Z" fill="#310000"/>
</svg>
