<svg width="126" height="74" viewBox="0 0 126 74" fill="none" xmlns="http://www.w3.org/2000/svg">
<path d="M107.057 62.8946C109.788 61.4381 112.701 61.0739 115.432 59.7995C118.345 58.3429 121.258 56.5222 123.99 54.5194C124.718 53.9732 125.264 51.9705 125.082 51.2422C124.536 49.9677 123.261 49.2394 122.533 48.3291C118.163 50.3319 114.522 51.7884 111.063 53.6091C106.875 55.7939 102.687 57.9788 98.3177 60.3457C90.3066 64.7153 82.2957 68.7208 74.2846 73.2726C74.1026 73.4546 73.9204 73.4546 73.5563 73.6367H87.7577C89.3963 72.7264 91.035 71.816 92.6736 71.0877C97.7715 68.3567 102.323 65.4436 107.057 62.8946Z" fill="#FF5E3A"/>
<path d="M63.5431 64.3508C66.2742 62.7121 69.1872 61.6197 71.9183 59.9811C75.1955 58.1604 78.2907 55.9756 81.3859 53.9728C82.1142 53.4266 83.0245 52.8804 83.7528 52.5163C89.761 49.6031 95.7694 47.0542 101.596 44.1411C107.968 40.8638 114.34 37.4045 120.713 33.9452C122.716 32.8528 124.718 31.3962 125.265 29.2114C125.265 26.1162 123.444 24.4776 121.259 25.3879C119.62 25.9341 117.982 26.6624 116.525 27.7548C105.601 35.9479 93.7666 40.4997 82.2962 46.508C71.7362 51.97 61.7224 58.7066 51.3445 64.897C46.6106 67.8101 41.6948 70.359 36.7789 73.0901C36.4148 73.2722 36.0506 73.6363 35.5044 73.8184H48.0672C49.7058 72.908 51.5265 71.8156 53.1651 70.9053C56.9886 68.7204 60.2659 66.3535 63.5431 64.3508Z" fill="#FF5E3A"/>
<path d="M44.7894 54.7007C51.1618 50.8772 57.1701 46.6896 63.5425 42.6841C72.828 36.8579 81.9315 30.8496 91.217 25.5696C98.864 21.1999 106.875 17.7406 114.704 13.553C117.799 11.9144 120.712 9.3654 123.625 7.18057C125.628 5.72401 125.81 3.72125 124.9 1.71849C123.807 -0.284271 122.351 -0.466339 120.348 0.808144C118.345 2.2647 116.343 4.08539 114.34 5.35988C107.057 9.3654 99.7743 13.3709 92.3094 17.1944C89.5784 18.6509 86.8473 19.9254 84.1163 21.7461C73.9204 28.3006 63.7246 35.0372 53.3467 41.5917C42.0584 48.6924 30.77 55.4289 19.4817 62.3476C12.9272 66.3531 6.55476 70.1765 0.000274658 74H12.3811C12.9273 73.6359 13.4734 73.2717 14.0196 73.0897C24.2155 66.7172 34.5935 60.7089 44.7894 54.7007Z" fill="#FF5E3A"/>
</svg>
