<svg width="165" height="40" viewBox="0 0 165 40" fill="none" xmlns="http://www.w3.org/2000/svg">
<path d="M20.6642 12.122H6.79942V1.41007H1.02561V28H6.79942V17.326H20.6642V28H26.476V1.41007H20.6642V12.122ZM40.3737 6.31021C33.9161 6.31021 28.5221 9.84288 28.5221 17.1741C28.5221 24.5433 33.9161 28 40.3737 28C46.8692 28 52.2632 24.6573 52.2632 17.1741C52.2632 9.76691 46.8692 6.31021 40.3737 6.31021ZM40.3737 22.758C36.765 22.758 34.182 21.1626 34.182 17.1741C34.182 13.1476 36.765 11.5902 40.3737 11.5902C44.0203 11.5902 46.6033 13.2236 46.6033 17.1741C46.6033 21.0106 44.0203 22.758 40.3737 22.758ZM65.8671 6.31021C59.4095 6.31021 54.0155 9.84288 54.0155 17.1741C54.0155 24.5433 59.4095 28 65.8671 28C72.3626 28 77.7565 24.6573 77.7565 17.1741C77.7565 9.76691 72.3626 6.31021 65.8671 6.31021ZM65.8671 22.758C62.2584 22.758 59.6754 21.1626 59.6754 17.1741C59.6754 13.1476 62.2584 11.5902 65.8671 11.5902C69.5137 11.5902 72.0967 13.2236 72.0967 17.1741C72.0967 21.0106 69.5137 22.758 65.8671 22.758ZM108.492 6.69007C103.174 6.69007 101.465 7.9436 100.059 9.84288H99.7932C98.5777 8.05755 96.4125 6.69007 92.576 6.69007C88.7774 6.69007 86.8781 7.9436 85.5107 9.84288H85.2448V6.88H79.5089V28H85.2448V17.7439C85.2448 14.857 85.5866 11.6662 90.5627 11.6662C95.8048 11.6662 95.7288 15.6927 95.7288 17.364V28H101.465V17.6299L101.503 17.7439C101.503 14.857 101.844 11.6662 106.821 11.6662C112.063 11.6662 111.987 15.6927 111.987 17.364V28H117.76V17.364C117.722 14.2492 117.495 6.69007 108.492 6.69007ZM125.91 28V6.84201H120.174V28H125.91ZM125.91 5.32259V0.156546H120.174V5.32259H125.91ZM150.575 18.6935H150.803C151.106 15.7686 150.727 11.2863 146.624 8.4754V8.51338C144.839 7.25986 142.408 6.50014 139.407 6.50014C132.228 6.50014 127.973 10.2987 127.973 17.2501C127.973 24.3534 132.114 28 139.407 28C146.396 28 150.119 25.1891 150.689 20.5928H145.105C144.573 21.9983 142.864 22.9479 139.407 22.9479C135.684 22.9479 133.975 21.5424 133.557 18.6935H150.575ZM139.407 11.5522C143.509 11.5522 144.573 13.2996 145.029 14.895H133.785C134.469 12.7298 136.216 11.5522 139.407 11.5522Z" fill="white"/>
<circle cx="160.252" cy="21.3673" r="4.7482" fill="#FF5E3A"/>
</svg>
