<svg width="139" height="34" viewBox="0 0 139 34" fill="none" xmlns="http://www.w3.org/2000/svg">
<path d="M17.408 10.624H5.728V1.6H0.864V24H5.728V15.008H17.408V24H22.304V1.6H17.408V10.624ZM34.0118 5.728C28.5718 5.728 24.0277 8.704 24.0277 14.88C24.0277 21.088 28.5718 24 34.0118 24C39.4838 24 44.0278 21.184 44.0278 14.88C44.0278 8.64 39.4838 5.728 34.0118 5.728ZM34.0118 19.584C30.9718 19.584 28.7958 18.24 28.7958 14.88C28.7958 11.488 30.9718 10.176 34.0118 10.176C37.0838 10.176 39.2598 11.552 39.2598 14.88C39.2598 18.112 37.0838 19.584 34.0118 19.584ZM55.488 5.728C50.048 5.728 45.504 8.704 45.504 14.88C45.504 21.088 50.048 24 55.488 24C60.96 24 65.504 21.184 65.504 14.88C65.504 8.64 60.96 5.728 55.488 5.728ZM55.488 19.584C52.448 19.584 50.272 18.24 50.272 14.88C50.272 11.488 52.448 10.176 55.488 10.176C58.56 10.176 60.736 11.552 60.736 14.88C60.736 18.112 58.56 19.584 55.488 19.584ZM91.3962 6.048C86.9163 6.048 85.4762 7.104 84.2922 8.704H84.0683C83.0443 7.2 81.2203 6.048 77.9882 6.048C74.7882 6.048 73.1882 7.104 72.0362 8.704H71.8122V6.208H66.9802V24H71.8122V15.36C71.8122 12.928 72.1002 10.24 76.2922 10.24C80.7083 10.24 80.6442 13.632 80.6442 15.04V24H85.4762V15.264L85.5082 15.36C85.5082 12.928 85.7962 10.24 89.9883 10.24C94.4043 10.24 94.3403 13.632 94.3403 15.04V24H99.2043V15.04C99.1722 12.416 98.9803 6.048 91.3962 6.048ZM106.07 24V6.176H101.238V24H106.07ZM106.07 4.896V0.543999H101.238V4.896H106.07ZM126.848 16.16H127.04C127.296 13.696 126.976 9.92 123.52 7.552V7.584C122.016 6.528 119.968 5.888 117.44 5.888C111.392 5.888 107.808 9.088 107.808 14.944C107.808 20.928 111.296 24 117.44 24C123.328 24 126.464 21.632 126.944 17.76H122.24C121.792 18.944 120.352 19.744 117.44 19.744C114.304 19.744 112.864 18.56 112.512 16.16H126.848ZM117.44 10.144C120.896 10.144 121.792 11.616 122.176 12.96H112.704C113.28 11.136 114.752 10.144 117.44 10.144Z" fill="black"/>
<circle cx="135" cy="19" r="4" fill="#FF5E3A"/>
</svg>
