<svg width="229" height="37" viewBox="0 0 229 37" fill="none" xmlns="http://www.w3.org/2000/svg">
<path d="M30.8105 5.13665L30.8105 15.861L12.4898 15.861L12.4898 5.13665L0.871723 5.13665L0.871723 36.416L12.4898 36.416L12.4898 25.6917L30.8105 25.6917L30.8105 36.416L42.4286 36.416L42.4286 5.13665L30.8105 5.13665ZM62.4352 36.8629C73.8298 36.8629 80.6666 32.9306 80.6666 23.0106C80.6666 13.0905 73.8298 9.15829 62.4352 9.15829C51.0405 9.15829 44.2038 13.0905 44.2038 23.0106C44.2038 32.9306 51.0405 36.8629 62.4352 36.8629ZM62.4352 27.9259C57.6539 27.9259 54.9281 26.9428 54.9281 23.0106C54.9281 19.0783 57.6539 18.0952 62.4352 18.0952C67.2164 18.0952 69.9422 19.0783 69.9422 23.0106C69.9422 26.9428 67.2164 27.9259 62.4352 27.9259ZM100.236 36.8629C111.63 36.8629 118.467 32.9306 118.467 23.0106C118.467 13.0905 111.63 9.15829 100.236 9.15829C88.8411 9.15829 82.0043 13.0905 82.0043 23.0106C82.0043 32.9306 88.8411 36.8629 100.236 36.8629ZM100.236 27.9259C95.4544 27.9259 92.7287 26.9428 92.7287 23.0106C92.7287 19.0783 95.4544 18.0952 100.236 18.0952C105.017 18.0952 107.743 19.0783 107.743 23.0106C107.743 26.9428 105.017 27.9259 100.236 27.9259ZM166.188 9.15829C159.664 9.15829 155.553 11.3925 152.738 14.0736C150.637 10.1414 146.392 9.15829 143.041 9.15829C136.517 9.15829 133.344 11.8394 130.976 14.0736L130.976 9.60513L120.252 9.60513L120.252 36.416L130.976 36.416L130.976 21.9381C133.255 19.7039 135.534 18.5421 138.26 18.5421C142.192 18.5421 143.398 20.5082 143.398 25.1108L143.398 36.416L154.123 36.416L154.123 21.9381C156.402 19.7039 158.681 18.5421 161.406 18.5421C165.339 18.5421 166.545 20.5082 166.545 25.1108L166.545 36.416L177.269 36.416L177.269 20.2848C177.269 11.035 170.88 9.15829 166.188 9.15829ZM179.522 0.668176L179.522 7.81774L190.246 7.81774L190.246 0.668176L179.522 0.668176ZM179.522 9.60513L179.522 36.416L190.246 36.416L190.246 9.60513L179.522 9.60513ZM209.83 28.3728C206.881 28.3728 203.887 27.6578 202.994 24.798L228.419 24.798C228.419 13.0905 221.314 9.15829 210.277 9.15829C199.329 9.15829 192.046 13.0905 192.046 23.0106C192.046 32.9306 199.329 36.8629 209.83 36.8629C220.868 36.8629 226.632 33.4668 227.972 26.3619L217.472 26.3619C215.282 28.1046 213.718 28.3728 209.83 28.3728ZM210.233 16.7547C213.092 16.7547 215.773 17.0228 216.98 19.4358L203.485 19.4358C204.692 17.0228 207.373 16.7547 210.233 16.7547Z" fill="black"/>
<path d="M30.8105 5.13665L30.8105 4.88665L30.5605 4.88665L30.5605 5.13665L30.8105 5.13665ZM30.8105 15.861L30.8105 16.111L31.0605 16.111L31.0605 15.861L30.8105 15.861ZM12.4898 15.861L12.2398 15.861L12.2398 16.111L12.4898 16.111L12.4898 15.861ZM12.4898 5.13665L12.7398 5.13665L12.7398 4.88665L12.4898 4.88665L12.4898 5.13665ZM0.871723 5.13665L0.871723 4.88665L0.621723 4.88665L0.621723 5.13665L0.871723 5.13665ZM0.871723 36.416L0.621723 36.416L0.621723 36.666L0.871723 36.666L0.871723 36.416ZM12.4898 36.416L12.4898 36.666L12.7398 36.666L12.7398 36.416L12.4898 36.416ZM12.4898 25.6917L12.4898 25.4417L12.2398 25.4417L12.2398 25.6917L12.4898 25.6917ZM30.8105 25.6917L31.0605 25.6917L31.0605 25.4417L30.8105 25.4417L30.8105 25.6917ZM30.8105 36.416L30.5605 36.416L30.5605 36.666L30.8105 36.666L30.8105 36.416ZM42.4286 36.416L42.4286 36.666L42.6786 36.666L42.6786 36.416L42.4286 36.416ZM42.4286 5.13665L42.6786 5.13665L42.6786 4.88665L42.4286 4.88665L42.4286 5.13665ZM30.5605 5.13665L30.5605 15.861L31.0605 15.861L31.0605 5.13665L30.5605 5.13665ZM30.8105 15.611L12.4898 15.611L12.4898 16.111L30.8105 16.111L30.8105 15.611ZM12.7398 15.861L12.7398 5.13665L12.2398 5.13665L12.2398 15.861L12.7398 15.861ZM12.4898 4.88665L0.871723 4.88665L0.871723 5.38665L12.4898 5.38665L12.4898 4.88665ZM0.621723 5.13665L0.621723 36.416L1.12172 36.416L1.12172 5.13665L0.621723 5.13665ZM0.871723 36.666L12.4898 36.666L12.4898 36.166L0.871723 36.166L0.871723 36.666ZM12.7398 36.416L12.7398 25.6917L12.2398 25.6917L12.2398 36.416L12.7398 36.416ZM12.4898 25.9417L30.8105 25.9417L30.8105 25.4417L12.4898 25.4417L12.4898 25.9417ZM30.5605 25.6917L30.5605 36.416L31.0605 36.416L31.0605 25.6917L30.5605 25.6917ZM30.8105 36.666L42.4286 36.666L42.4286 36.166L30.8105 36.166L30.8105 36.666ZM42.6786 36.416L42.6786 5.13665L42.1786 5.13665L42.1786 36.416L42.6786 36.416ZM42.4286 4.88665L30.8105 4.88665L30.8105 5.38665L42.4286 5.38665L42.4286 4.88665ZM62.4352 37.1129C68.1532 37.1129 72.7729 36.1277 75.9685 33.8606C79.1805 31.5819 80.9166 28.0352 80.9166 23.0106L80.4166 23.0106C80.4166 27.906 78.7343 31.2854 75.6792 33.4528C72.6077 35.6319 68.1118 36.6129 62.4352 36.6129L62.4352 37.1129ZM80.9166 23.0106C80.9166 17.986 79.1805 14.4392 75.9685 12.1605C72.7729 9.89344 68.1532 8.90829 62.4352 8.90829L62.4352 9.40829C68.1118 9.40829 72.6077 10.3893 75.6792 12.5683C78.7343 14.7357 80.4166 18.1151 80.4166 23.0106L80.9166 23.0106ZM62.4352 8.90829C56.7171 8.90829 52.0974 9.89344 48.9018 12.1605C45.6899 14.4392 43.9538 17.986 43.9538 23.0106L44.4538 23.0106C44.4538 18.1151 46.1361 14.7357 49.1911 12.5683C52.2626 10.3893 56.7586 9.40829 62.4352 9.40829L62.4352 8.90829ZM43.9538 23.0106C43.9538 28.0352 45.6899 31.5819 48.9018 33.8606C52.0974 36.1277 56.7171 37.1129 62.4352 37.1129L62.4352 36.6129C56.7586 36.6129 52.2626 35.6319 49.1911 33.4528C46.1361 31.2854 44.4538 27.906 44.4538 23.0106L43.9538 23.0106ZM62.4352 27.6759C60.0487 27.6759 58.2309 27.428 57.0135 26.7262C56.4117 26.3794 55.9575 25.9219 55.6513 25.3236C55.3437 24.7227 55.1781 23.9655 55.1781 23.0106L54.6781 23.0106C54.6781 24.0218 54.8533 24.8621 55.2062 25.5514C55.5604 26.2434 56.0865 26.769 56.7638 27.1594C58.1047 27.9323 60.0404 28.1759 62.4352 28.1759L62.4352 27.6759ZM55.1781 23.0106C55.1781 22.0556 55.3437 21.2984 55.6513 20.6975C55.9575 20.0993 56.4117 19.6418 57.0135 19.2949C58.2309 18.5932 60.0487 18.3452 62.4352 18.3452L62.4352 17.8452C60.0404 17.8452 58.1047 18.0888 56.7638 18.8617C56.0865 19.2521 55.5604 19.7777 55.2062 20.4697C54.8533 21.1591 54.6781 21.9994 54.6781 23.0106L55.1781 23.0106ZM62.4352 18.3452C64.8216 18.3452 66.6395 18.5932 67.8568 19.2949C68.4586 19.6418 68.9128 20.0993 69.2191 20.6975C69.5267 21.2984 69.6922 22.0556 69.6922 23.0106L70.1922 23.0106C70.1922 21.9994 70.017 21.1591 69.6641 20.4697C69.3099 19.7777 68.7838 19.2521 68.1065 18.8617C66.7657 18.0888 64.83 17.8452 62.4352 17.8452L62.4352 18.3452ZM69.6922 23.0106C69.6922 23.9655 69.5267 24.7227 69.2191 25.3236C68.9128 25.9219 68.4586 26.3794 67.8568 26.7262C66.6395 27.428 64.8216 27.6759 62.4352 27.6759L62.4352 28.1759C64.83 28.1759 66.7657 27.9323 68.1065 27.1594C68.7838 26.769 69.3099 26.2434 69.6641 25.5514C70.017 24.8621 70.1922 24.0218 70.1922 23.0106L69.6922 23.0106ZM100.236 37.1129C105.954 37.1129 110.573 36.1277 113.769 33.8606C116.981 31.5819 118.717 28.0352 118.717 23.0106L118.217 23.0106C118.217 27.906 116.535 31.2854 113.48 33.4528C110.408 35.6319 105.912 36.6129 100.236 36.6129L100.236 37.1129ZM118.717 23.0106C118.717 17.986 116.981 14.4392 113.769 12.1605C110.573 9.89344 105.954 8.90829 100.236 8.90829L100.236 9.40829C105.912 9.40829 110.408 10.3893 113.48 12.5683C116.535 14.7357 118.217 18.1151 118.217 23.0106L118.717 23.0106ZM100.236 8.90829C94.5177 8.90829 89.8979 9.89344 86.7024 12.1605C83.4904 14.4392 81.7543 17.986 81.7543 23.0106L82.2543 23.0106C82.2543 18.1151 83.9366 14.7357 86.9917 12.5683C90.0632 10.3893 94.5591 9.40829 100.236 9.40829L100.236 8.90829ZM81.7543 23.0106C81.7543 28.0352 83.4904 31.5819 86.7024 33.8606C89.8979 36.1277 94.5177 37.1129 100.236 37.1129L100.236 36.6129C94.5591 36.6129 90.0632 35.6319 86.9917 33.4528C83.9366 31.2854 82.2543 27.906 82.2543 23.0106L81.7543 23.0106ZM100.236 27.6759C97.8492 27.6759 96.0314 27.428 94.814 26.7262C94.2123 26.3794 93.7581 25.9219 93.4518 25.3236C93.1442 24.7227 92.9786 23.9655 92.9786 23.0106L92.4786 23.0106C92.4786 24.0218 92.6538 24.8621 93.0067 25.5514C93.361 26.2434 93.887 26.769 94.5643 27.1594C95.9052 27.9323 97.8409 28.1759 100.236 28.1759L100.236 27.6759ZM92.9786 23.0106C92.9786 22.0556 93.1442 21.2984 93.4518 20.6975C93.7581 20.0993 94.2123 19.6418 94.814 19.2949C96.0314 18.5932 97.8492 18.3452 100.236 18.3452L100.236 17.8452C97.8409 17.8452 95.9052 18.0888 94.5643 18.8617C93.887 19.2521 93.361 19.7777 93.0067 20.4697C92.6538 21.1591 92.4786 21.9994 92.4786 23.0106L92.9786 23.0106ZM100.236 18.3452C102.622 18.3452 104.44 18.5932 105.657 19.2949C106.259 19.6418 106.713 20.0993 107.02 20.6975C107.327 21.2984 107.493 22.0556 107.493 23.0106L107.993 23.0106C107.993 21.9994 107.818 21.1591 107.465 20.4697C107.11 19.7777 106.584 19.2521 105.907 18.8617C104.566 18.0888 102.63 17.8452 100.236 17.8452L100.236 18.3452ZM107.493 23.0106C107.493 23.9655 107.327 24.7227 107.02 25.3236C106.713 25.9219 106.259 26.3794 105.657 26.7262C104.44 27.428 102.622 27.6759 100.236 27.6759L100.236 28.1759C102.63 28.1759 104.566 27.9323 105.907 27.1594C106.584 26.769 107.11 26.2434 107.465 25.5514C107.818 24.8621 107.993 24.0218 107.993 23.0106L107.493 23.0106ZM152.738 14.0736L152.517 14.1914L152.672 14.4814L152.91 14.2546L152.738 14.0736ZM130.976 14.0736L130.726 14.0736L130.726 14.6532L131.148 14.2555L130.976 14.0736ZM130.976 9.60513L131.226 9.60513L131.226 9.35513L130.976 9.35513L130.976 9.60513ZM120.252 9.60513L120.252 9.35513L120.002 9.35513L120.002 9.60513L120.252 9.60513ZM120.252 36.416L120.002 36.416L120.002 36.666L120.252 36.666L120.252 36.416ZM130.976 36.416L130.976 36.666L131.226 36.666L131.226 36.416L130.976 36.416ZM130.976 21.9381L130.801 21.7596L130.726 21.8331L130.726 21.9381L130.976 21.9381ZM143.398 36.416L143.148 36.416L143.148 36.666L143.398 36.666L143.398 36.416ZM154.123 36.416L154.123 36.666L154.373 36.666L154.373 36.416L154.123 36.416ZM154.123 21.9381L153.948 21.7596L153.873 21.8331L153.873 21.9381L154.123 21.9381ZM166.545 36.416L166.295 36.416L166.295 36.666L166.545 36.666L166.545 36.416ZM177.269 36.416L177.269 36.666L177.519 36.666L177.519 36.416L177.269 36.416ZM166.188 8.90829C159.597 8.90829 155.425 11.1687 152.565 13.8926L152.91 14.2546C155.68 11.6163 159.73 9.40829 166.188 9.40829L166.188 8.90829ZM152.958 13.9558C150.792 9.89997 146.424 8.90829 143.041 8.90829L143.041 9.40829C146.361 9.40829 150.483 10.3827 152.517 14.1914L152.958 13.9558ZM143.041 8.90829C139.742 8.90829 137.28 9.58658 135.339 10.5544C133.4 11.5209 131.993 12.7708 130.804 13.8918L131.148 14.2555C132.328 13.1422 133.691 11.9344 135.562 11.0018C137.43 10.0705 139.815 9.40829 143.041 9.40829L143.041 8.90829ZM131.226 14.0736L131.226 9.60513L130.726 9.60513L130.726 14.0736L131.226 14.0736ZM130.976 9.35513L120.252 9.35513L120.252 9.85513L130.976 9.85513L130.976 9.35513ZM120.002 9.60513L120.002 36.416L120.502 36.416L120.502 9.60513L120.002 9.60513ZM120.252 36.666L130.976 36.666L130.976 36.166L120.252 36.166L120.252 36.666ZM131.226 36.416L131.226 21.9381L130.726 21.9381L130.726 36.416L131.226 36.416ZM131.151 22.1167C133.399 19.9129 135.618 18.7921 138.26 18.7921L138.26 18.2921C135.449 18.2921 133.111 19.4949 130.801 21.7596L131.151 22.1167ZM138.26 18.7921C140.187 18.7921 141.377 19.2728 142.103 20.2496C142.845 21.2471 143.148 22.817 143.148 25.1108L143.648 25.1108C143.648 22.802 143.349 21.0876 142.504 19.9513C141.644 18.7945 140.265 18.2921 138.26 18.2921L138.26 18.7921ZM143.148 25.1108L143.148 36.416L143.648 36.416L143.648 25.1108L143.148 25.1108ZM143.398 36.666L154.123 36.666L154.123 36.166L143.398 36.166L143.398 36.666ZM154.373 36.416L154.373 21.9381L153.873 21.9381L153.873 36.416L154.373 36.416ZM154.298 22.1167C156.546 19.9129 158.765 18.7921 161.406 18.7921L161.406 18.2921C158.596 18.2921 156.258 19.4949 153.948 21.7596L154.298 22.1167ZM161.406 18.7921C163.334 18.7921 164.523 19.2728 165.25 20.2496C165.991 21.2471 166.295 22.817 166.295 25.1108L166.795 25.1108C166.795 22.802 166.496 21.0876 165.651 19.9513C164.791 18.7945 163.411 18.2921 161.406 18.2921L161.406 18.7921ZM166.295 25.1108L166.295 36.416L166.795 36.416L166.795 25.1108L166.295 25.1108ZM166.545 36.666L177.269 36.666L177.269 36.166L166.545 36.166L166.545 36.666ZM177.519 36.416L177.519 20.2848L177.019 20.2848L177.019 36.416L177.519 36.416ZM177.519 20.2848C177.519 15.5957 175.896 12.7331 173.637 11.0523C171.392 9.3816 168.56 8.90829 166.188 8.90829L166.188 9.40829C168.507 9.40829 171.216 9.87335 173.339 11.4534C175.448 13.0235 177.019 15.7241 177.019 20.2848L177.519 20.2848ZM179.522 0.668176L179.522 0.418176L179.272 0.418176L179.272 0.668176L179.522 0.668176ZM179.522 7.81774L179.272 7.81774L179.272 8.06774L179.522 8.06774L179.522 7.81774ZM190.246 7.81774L190.246 8.06774L190.496 8.06774L190.496 7.81774L190.246 7.81774ZM190.246 0.668176L190.496 0.668176L190.496 0.418176L190.246 0.418176L190.246 0.668176ZM179.522 9.60513L179.522 9.35513L179.272 9.35513L179.272 9.60513L179.522 9.60513ZM179.522 36.416L179.272 36.416L179.272 36.666L179.522 36.666L179.522 36.416ZM190.246 36.416L190.246 36.666L190.496 36.666L190.496 36.416L190.246 36.416ZM190.246 9.60513L190.496 9.60513L190.496 9.35513L190.246 9.35513L190.246 9.60513ZM179.272 0.668176L179.272 7.81774L179.772 7.81774L179.772 0.668176L179.272 0.668176ZM179.522 8.06774L190.246 8.06774L190.246 7.56774L179.522 7.56774L179.522 8.06774ZM190.496 7.81774L190.496 0.668176L189.996 0.668176L189.996 7.81774L190.496 7.81774ZM190.246 0.418176L179.522 0.418176L179.522 0.918176L190.246 0.918176L190.246 0.418176ZM179.272 9.60513L179.272 36.416L179.772 36.416L179.772 9.60513L179.272 9.60513ZM179.522 36.666L190.246 36.666L190.246 36.166L179.522 36.166L179.522 36.666ZM190.496 36.416L190.496 9.60513L189.996 9.60513L189.996 36.416L190.496 36.416ZM190.246 9.35513L179.522 9.35513L179.522 9.85513L190.246 9.85513L190.246 9.35513ZM202.994 24.798L202.994 24.548L202.654 24.548L202.755 24.8725L202.994 24.798ZM228.419 24.798L228.419 25.048L228.669 25.048L228.669 24.798L228.419 24.798ZM227.972 26.3619L228.218 26.4083L228.274 26.1119L227.972 26.1119L227.972 26.3619ZM217.471 26.3619L217.471 26.1119L217.384 26.1119L217.316 26.1663L217.471 26.3619ZM216.98 19.4358L216.98 19.6858L217.384 19.6858L217.204 19.324L216.98 19.4358ZM203.485 19.4358L203.262 19.324L203.081 19.6858L203.485 19.6858L203.485 19.4358ZM209.83 28.1227C208.371 28.1227 206.925 27.9452 205.741 27.4287C204.566 26.9159 203.654 26.072 203.232 24.7234L202.755 24.8725C203.227 26.3838 204.259 27.3272 205.541 27.8869C206.815 28.4429 208.34 28.6228 209.83 28.6228L209.83 28.1227ZM202.994 25.048L228.419 25.048L228.419 24.548L202.994 24.548L202.994 25.048ZM228.669 24.798C228.669 18.8911 226.874 14.8972 223.64 12.3903C220.42 9.89358 215.817 8.90829 210.277 8.90829L210.277 9.40829C215.774 9.40829 220.243 10.3891 223.334 12.7854C226.412 15.1715 228.169 18.9974 228.169 24.798L228.669 24.798ZM210.277 8.90829C204.781 8.90829 200.163 9.89415 196.913 12.1593C193.648 14.4354 191.796 17.9805 191.796 23.0106L192.296 23.0106C192.296 18.1207 194.086 14.7395 197.199 12.5695C200.328 10.3886 204.826 9.40829 210.277 9.40829L210.277 8.90829ZM191.796 23.0106C191.796 28.0403 193.647 31.5845 196.856 33.8606C200.049 36.1264 204.556 37.1129 209.83 37.1129L209.83 36.6129C204.604 36.6129 200.218 35.6332 197.145 33.4528C194.086 31.2828 192.296 27.9008 192.296 23.0106L191.796 23.0106ZM209.83 37.1129C215.369 37.1129 219.62 36.2618 222.663 34.4929C225.719 32.7165 227.535 30.0264 228.218 26.4083L227.727 26.3156C227.069 29.8023 225.333 32.3627 222.412 34.0606C219.478 35.7659 215.329 36.6129 209.83 36.6129L209.83 37.1129ZM227.972 26.1119L217.471 26.1119L217.471 26.6119L227.972 26.6119L227.972 26.1119ZM217.316 26.1663C216.242 27.021 215.335 27.5039 214.228 27.7782C213.109 28.055 211.774 28.1227 209.83 28.1227L209.83 28.6228C211.774 28.6228 213.165 28.5564 214.348 28.2635C215.541 27.9681 216.511 27.4455 217.627 26.5575L217.316 26.1663ZM210.233 17.0047C211.661 17.0047 213.012 17.0726 214.152 17.429C215.28 17.782 216.19 18.4145 216.756 19.5476L217.204 19.324C216.564 18.0441 215.529 17.336 214.301 16.9518C213.083 16.5708 211.664 16.5047 210.233 16.5047L210.233 17.0047ZM216.98 19.1858L203.485 19.1858L203.485 19.6858L216.98 19.6858L216.98 19.1858ZM203.709 19.5476C204.275 18.4145 205.185 17.782 206.313 17.429C207.453 17.0726 208.805 17.0047 210.233 17.0047L210.233 16.5047C208.801 16.5047 207.382 16.5708 206.164 16.9518C204.936 17.336 203.902 18.0441 203.262 19.324L203.709 19.5476Z" fill="#F8CE68"/>
</svg>
