<svg width="65" height="60" viewBox="0 0 65 60" fill="none" xmlns="http://www.w3.org/2000/svg">
<path fill-rule="evenodd" clip-rule="evenodd" d="M10.43 59.237C10.639 59.3146 11.1335 59.5952 11.6523 59.6556C11.9966 59.6957 12.4418 59.5 12.7271 59.2688C13.1803 58.9014 13.2778 58.3354 13.0277 57.8079C12.858 57.4502 12.5909 57.1167 12.3025 56.8424C11.4188 56.002 10.4089 55.2749 9.63351 54.3471C9.09849 53.7089 7.69685 53.3583 8.24217 52.2983C8.60328 51.5965 9.75186 52.046 10.5355 52.0702C14.2012 52.1808 17.8423 52.1233 21.4836 51.5241C26.8783 50.6358 32.0016 49.0431 36.8462 46.4752C42.5456 43.4553 47.5938 39.5332 51.8997 34.8297C56.7891 29.4891 60.3742 23.2642 62.5 16.2506C63.7674 12.0663 64.3904 7.79302 64.7136 3.46035C64.7627 2.79986 64.6878 2.10303 64.5187 1.46251C64.3774 0.928225 63.9245 0.561912 63.3061 0.579157C62.7347 0.596192 62.2135 0.811651 62.0036 1.36364C61.8173 1.85773 61.7385 2.40315 61.6774 2.93327C61.3978 5.35581 61.2616 7.8033 60.8495 10.2023C59.7339 16.7104 57.2266 22.6316 53.4033 28.0537C51.1938 31.1866 48.6939 33.9754 45.8172 36.4869C43.2522 38.7266 40.6681 40.8907 37.4236 42.1061C36.7935 42.342 36.2134 42.7155 35.622 43.0473C28.5961 46.9868 21.0058 48.6858 13.0048 48.7336C11.2446 48.7443 9.48402 48.6793 7.72358 48.631C7.20619 48.6175 6.69366 48.1746 6.86562 47.9446C7.01906 47.7383 7.15578 47.4811 7.36703 47.363C8.66862 46.6378 9.99768 45.9617 11.2994 45.2346C11.8859 44.9078 12.4493 44.5276 12.9866 44.1215C13.462 43.763 13.5019 42.7826 13.1346 42.2579C12.7668 41.734 12.2272 41.7419 11.6839 41.7614C11.5536 41.7665 11.4127 41.8136 11.296 41.8765C7.83015 43.7265 4.35216 45.5567 0.910932 47.4522C0.0440085 47.9287 -0.128576 49.1254 0.37871 49.9661C0.448927 50.082 0.498134 50.2124 0.576383 50.3212C2.01102 52.3136 7.85648 57.6473 10.43 59.237" fill="#FF5E3A"/>
</svg>
