<svg width="65" height="45" viewBox="0 0 65 45" fill="none" xmlns="http://www.w3.org/2000/svg">
<path d="M28.3803 17.2458C28.3803 21.9655 27.6479 26.0195 26.1831 29.408C24.7183 32.9175 22.8263 35.7614 20.507 37.9397C18.1878 40.239 15.5634 41.8727 12.6338 42.8409C9.58216 43.93 6.59155 44.4746 3.66198 44.4746V38.1212C6.83569 38.1212 9.82629 37.0321 12.6338 34.8538C15.3193 32.7965 16.9061 29.9526 17.3944 26.3221C17.0282 26.4431 16.6009 26.5641 16.1127 26.6851C15.7465 26.8062 15.3193 26.9272 14.831 27.0482C14.2207 27.1692 13.5493 27.2297 12.8169 27.2297C9.15493 27.2297 6.10329 25.838 3.66198 23.0546C1.22066 20.3923 0 17.2458 0 13.6153C0 9.98481 1.28169 6.77787 3.84508 3.99448C6.28639 1.33211 9.58216 0.000926971 13.7324 0.000926971C18.3709 0.000926971 21.9718 1.69516 24.5352 5.08363C27.0986 8.59312 28.3803 12.6472 28.3803 17.2458ZM65 17.2458C65 21.9655 64.2676 26.0195 62.8028 29.408C61.338 32.9175 59.446 35.7614 57.1268 37.9397C54.8075 40.239 52.1831 41.8727 49.2535 42.8409C46.2019 43.93 43.2113 44.4746 40.2817 44.4746V38.1212C43.4554 38.1212 46.446 37.0321 49.2535 34.8538C51.939 32.7965 53.5258 29.9526 54.0141 26.3221C53.6479 26.4431 53.2207 26.5641 52.7324 26.6851C52.3662 26.8062 51.939 26.9272 51.4507 27.0482C50.8404 27.1692 50.169 27.2297 49.4366 27.2297C45.7746 27.2297 42.723 25.838 40.2817 23.0546C37.8404 20.3923 36.6197 17.2458 36.6197 13.6153C36.6197 9.98481 37.9014 6.77787 40.4648 3.99448C42.9061 1.33211 46.2019 0.000926971 50.3521 0.000926971C54.9906 0.000926971 58.5915 1.69516 61.1549 5.08363C63.7183 8.59312 65 12.6472 65 17.2458Z" fill="#FF5E3A"/>
</svg>
