<svg width="160" height="160" viewBox="0 0 160 160" fill="none" xmlns="http://www.w3.org/2000/svg">
<path d="M80 0L149.282 40V120L80 160L10.718 120V40L80 0Z" fill="white"/>
<path fill-rule="evenodd" clip-rule="evenodd" d="M34.0207 89H46.5674V91.3357H41.6272V104.502H38.9195V91.3357H34L34.0207 89ZM46.0296 93.2817H48.3447V95.4521H48.386C48.4687 95.142 48.6134 94.8526 48.8201 94.5633C49.0268 94.2739 49.2748 94.0052 49.5849 93.7778C49.8742 93.5298 50.205 93.3437 50.577 93.199C50.9284 93.0544 51.3005 92.9717 51.6725 92.9717C51.8537 92.9717 52.0024 92.9798 52.1137 92.9858C52.1802 92.9895 52.2333 92.9923 52.272 92.9923C52.3753 93.013 52.4993 93.0337 52.6027 93.0337V95.4107C52.4373 95.3694 52.2513 95.3487 52.0653 95.3281L52.0146 95.3224C51.8487 95.3038 51.6968 95.2867 51.5278 95.2867C51.1144 95.2867 50.7217 95.3694 50.3496 95.5348C49.9776 95.7001 49.6675 95.9482 49.3782 96.2582C49.1095 96.5889 48.8821 96.9817 48.7167 97.4571C48.5514 97.9325 48.4687 98.4906 48.4687 99.1107V104.444H45.9883L46.0296 93.2817ZM61.533 104.504H63.9721H63.9927V93.2803H61.5123V99.7913C61.5123 100.225 61.471 100.639 61.3676 101.011C61.2643 101.383 61.1196 101.714 60.8922 101.982C60.6855 102.251 60.3961 102.458 60.0448 102.623C59.6934 102.788 59.2593 102.871 58.7425 102.871C58.0604 102.871 57.523 102.664 57.151 102.251C56.7582 101.858 56.5722 101.156 56.5722 100.163V93.2803H54.0918V100.411C54.0918 101.879 54.4225 102.995 55.084 103.719C55.7454 104.463 56.8202 104.814 58.2878 104.814C58.9079 104.814 59.528 104.649 60.1274 104.297C60.7269 103.946 61.1816 103.512 61.4917 102.933H61.533V104.504ZM68.1897 100.907C68.2724 101.631 68.5411 102.127 69.0165 102.437C69.4919 102.726 70.0707 102.871 70.7321 102.871C70.9595 102.871 71.2282 102.85 71.5176 102.809C71.807 102.767 72.0963 102.705 72.3444 102.602C72.6131 102.499 72.8198 102.354 72.9851 102.147C73.1505 101.941 73.2332 101.693 73.2125 101.383C73.1918 101.073 73.0885 100.804 72.8611 100.597C72.6338 100.39 72.365 100.246 72.0343 100.101C71.7036 99.977 71.3109 99.8737 70.8768 99.791C70.5237 99.7237 70.1705 99.6428 69.8063 99.5593L69.8053 99.559C69.7221 99.54 69.6384 99.5208 69.5539 99.5016C69.0992 99.3983 68.6444 99.2742 68.2104 99.1295C67.7763 98.9849 67.4042 98.7988 67.0529 98.5301C66.7221 98.2821 66.4328 97.972 66.2467 97.5793C66.04 97.1866 65.9367 96.7318 65.9367 96.1531C65.9367 95.533 66.0814 95.0369 66.3914 94.6235C66.6808 94.2101 67.0735 93.8794 67.5283 93.6313C67.983 93.3833 68.4998 93.1973 69.0578 93.0939C69.6159 92.9906 70.1534 92.9492 70.6494 92.9492C71.2282 92.9492 71.7863 93.0112 72.303 93.1352C72.8198 93.2593 73.3159 93.4453 73.7293 93.7347C74.1633 94.0034 74.5147 94.3754 74.7834 94.8095C75.0728 95.2436 75.2382 95.781 75.3209 96.4011H72.7371C72.6131 95.8017 72.3444 95.4089 71.931 95.2022C71.4969 94.9955 71.0215 94.8922 70.4634 94.8922C70.298 94.8922 70.0707 94.9129 69.8433 94.9335C69.5953 94.9749 69.3886 95.0162 69.1612 95.0989C68.9545 95.1816 68.7685 95.3056 68.6238 95.4503C68.4791 95.595 68.3964 95.8017 68.3964 96.0497C68.3964 96.3598 68.4998 96.5871 68.7065 96.7732C68.9132 96.9592 69.1819 97.1039 69.5333 97.2486C69.864 97.3726 70.2567 97.4759 70.6908 97.5586C71.1248 97.6413 71.5795 97.7446 72.0342 97.848L72.0343 97.848C72.4891 97.9514 72.9231 98.0754 73.3572 98.2201C73.7913 98.3648 74.184 98.5508 74.5147 98.8195C74.8454 99.0675 75.1348 99.3776 75.3415 99.7496C75.5482 100.122 75.6516 100.597 75.6516 101.135C75.6516 101.796 75.5069 102.354 75.1968 102.829C74.8868 103.284 74.4941 103.677 74.0186 103.966C73.5432 104.256 72.9851 104.462 72.4064 104.607C71.807 104.731 71.2282 104.814 70.6494 104.814C69.9467 104.814 69.2852 104.731 68.6858 104.566C68.0864 104.4 67.5489 104.152 67.1149 103.842C66.6808 103.512 66.3294 103.119 66.0814 102.623C65.8333 102.147 65.6886 101.569 65.668 100.886H68.169V100.907H68.1897ZM78.2325 93.2795H76.3516V95.1192H78.2325V101.734C78.2532 102.188 78.2945 102.622 78.3772 102.974C78.4599 103.325 78.6046 103.615 78.832 103.863C79.0593 104.09 79.3694 104.276 79.7621 104.4C80.1548 104.524 80.6716 104.586 81.333 104.586C81.6224 104.586 81.8704 104.586 82.1392 104.545C82.4079 104.524 82.6766 104.503 82.9453 104.462V102.54C82.7963 102.577 82.6305 102.597 82.4782 102.616L82.4285 102.622C82.2632 102.643 82.0771 102.643 81.9118 102.643C81.6224 102.643 81.4157 102.602 81.2504 102.54C81.1057 102.478 80.9816 102.374 80.899 102.25C80.8369 102.126 80.7749 101.961 80.7543 101.775L80.7543 101.775C80.7336 101.568 80.7129 101.361 80.7129 101.093V95.0985H82.9453V93.2589H80.7129V89.8896H78.2325V93.2795ZM84.7043 93.2817H87.0193V94.8113H87.0606C87.412 94.1499 87.8874 93.6951 88.5075 93.4057C89.1276 93.1164 89.7891 92.9717 90.5332 92.9717C91.422 92.9717 92.1868 93.1164 92.8482 93.4471C93.5097 93.7571 94.0471 94.1705 94.4812 94.7286C94.9152 95.266 95.246 95.9068 95.4527 96.6303C95.6594 97.3537 95.7834 98.1392 95.7834 98.9453C95.7834 99.7101 95.68 100.434 95.494 101.136C95.2873 101.839 94.9979 102.48 94.6052 103.017C94.2125 103.555 93.7164 103.989 93.0963 104.32C92.4762 104.65 91.7734 104.816 90.9466 104.816C90.5952 104.816 90.2232 104.774 89.8718 104.712C89.5204 104.65 89.169 104.547 88.8383 104.402C88.5075 104.257 88.1975 104.071 87.9288 103.844C87.6394 103.617 87.412 103.348 87.226 103.059H87.1847V108.66H84.7043V93.2817ZM93.1364 97.4384C93.2811 97.9138 93.3431 98.4099 93.3431 98.906C93.3431 99.4021 93.2811 99.8775 93.1777 100.374C93.0744 100.849 92.8883 101.262 92.6403 101.634C92.3716 101.986 92.0615 102.296 91.6688 102.523C91.2761 102.751 90.8213 102.875 90.2426 102.875C89.7258 102.875 89.2918 102.771 88.899 102.565C88.5063 102.358 88.1756 102.089 87.9069 101.738C87.6175 101.386 87.4315 100.973 87.2868 100.498C87.1421 100.022 87.0801 99.5054 87.0801 98.9266C87.0801 97.7278 87.3488 96.7563 87.8655 96.0328C88.403 95.3094 89.1884 94.958 90.2219 94.958C90.718 94.958 91.1727 95.0614 91.5655 95.2887C91.9375 95.5161 92.2682 95.8055 92.537 96.1775C92.8057 96.5496 93.0124 96.963 93.1364 97.4384ZM97.7031 89H100.184V91.3357H97.7031V89ZM100.184 93.2803H97.7031V104.504H100.184V93.2803ZM102.396 89H104.877V104.502H102.396V89ZM110.045 104.361C110.748 104.671 111.554 104.816 112.443 104.816C113.352 104.816 114.138 104.65 114.841 104.361C115.543 104.071 116.143 103.658 116.618 103.141C117.094 102.604 117.445 101.984 117.714 101.26C117.982 100.537 118.106 99.7514 118.106 98.8833C118.106 98.0358 117.962 97.2504 117.714 96.5269C117.466 95.8035 117.094 95.1627 116.618 94.6459C116.122 94.1292 115.543 93.7158 114.841 93.4264C114.138 93.1164 113.332 92.9717 112.443 92.9717C111.554 92.9717 110.748 93.137 110.045 93.4264C109.342 93.7158 108.743 94.1292 108.268 94.6459C107.792 95.1834 107.42 95.8035 107.172 96.5269C106.903 97.2504 106.779 98.0358 106.779 98.8833C106.779 99.7308 106.924 100.537 107.172 101.26C107.42 101.984 107.792 102.625 108.268 103.141C108.764 103.658 109.342 104.051 110.045 104.361ZM112.443 102.854C112.98 102.854 113.476 102.73 113.869 102.503C114.283 102.275 114.593 101.965 114.861 101.593C115.13 101.221 115.316 100.787 115.44 100.332C115.564 99.8568 115.626 99.3814 115.626 98.8853C115.626 98.4099 115.564 97.9345 115.44 97.4591C115.316 96.9837 115.13 96.5703 114.861 96.1982C114.593 95.8261 114.262 95.5368 113.869 95.3094C113.456 95.082 112.98 94.958 112.443 94.958C111.906 94.958 111.409 95.082 111.017 95.3094C110.603 95.5368 110.293 95.8468 110.025 96.1982C109.756 96.5703 109.57 96.9837 109.446 97.4591C109.322 97.9345 109.26 98.4099 109.26 98.8853C109.26 99.3814 109.322 99.8568 109.446 100.332C109.57 100.808 109.756 101.221 110.025 101.593C110.293 101.965 110.624 102.275 111.017 102.503C111.43 102.751 111.906 102.854 112.443 102.854ZM120.73 93.2796H118.85V95.1192H120.73V101.734C120.751 102.188 120.792 102.622 120.875 102.974C120.958 103.325 121.103 103.615 121.33 103.863C121.557 104.09 121.867 104.276 122.26 104.4C122.653 104.524 123.17 104.586 123.831 104.586C124.12 104.586 124.368 104.586 124.637 104.545C124.906 104.524 125.175 104.503 125.443 104.462V102.54C125.294 102.577 125.129 102.597 124.976 102.616C124.959 102.618 124.943 102.62 124.926 102.622C124.761 102.643 124.575 102.643 124.41 102.643C124.12 102.643 123.914 102.602 123.748 102.54C123.604 102.478 123.48 102.374 123.397 102.25C123.335 102.126 123.273 101.961 123.252 101.775C123.232 101.568 123.211 101.362 123.211 101.093V95.0986H125.443V93.2589H123.211V89.8897H120.73V93.2796Z" fill="black"/>
<path d="M95.6823 53.5087H83.5782L79.8522 42L76.1041 53.5087L64 53.4866L73.7891 60.6079L70.041 72.1165L79.8301 64.9953L89.6192 72.1165L85.8932 60.6079L95.6823 53.5087Z" fill="#00B67A"/>
<path d="M86.7303 63.2109L85.8925 60.6094L79.8516 64.9968L86.7303 63.2109Z" fill="#005128"/>
</svg>
